# Blender 4.5.5 LTS
# www.blender.org
mtllib alien.mtl
o Body
v -0.440613 -2.082830 -0.162747
v -0.444314 -2.086319 0.251806
v -0.379646 -0.395558 0.069023
v -0.360038 -0.353323 -0.427542
v -0.014838 -0.121072 0.046954
v 0.000119 -0.101149 -0.108746
v -0.038953 0.328291 0.253095
v -0.055255 0.408524 -0.065067
v -0.448409 -2.228961 -0.252690
v -0.467484 -2.233385 0.228028
v 0.003412 -2.231110 -0.317109
v 0.088647 -0.379030 0.194164
v 0.012694 -2.214671 0.392858
v 0.126578 -0.329984 -0.512753
v 0.106358 -0.171049 0.105733
v 0.134590 -0.093120 -0.137077
v 0.173489 0.243156 0.286441
v 0.214629 0.308496 -0.143927
v 0.000247 -2.725680 -0.321752
v 0.007618 -2.721417 0.248639
v -0.494770 -2.380984 -0.140784
v -0.287161 -2.541416 -0.311307
v -0.336498 -2.558986 0.042948
v -0.521048 -2.388213 0.073214
v -0.401610 -2.679697 -0.304577
v -0.502938 -2.656944 -0.277801
v -0.535937 -2.684528 -0.106203
v -0.444923 -2.716856 -0.066660
v -0.339103 -1.213830 -0.143136
v -0.334029 -1.199429 -0.526765
v 0.007984 -1.271647 -0.617372
v -0.028896 -1.325640 -0.052236
v -0.186844 -2.668178 -0.581805
v -0.593107 -2.635495 -0.529672
v -0.711512 -2.717155 -0.020827
v -0.357646 -2.792344 0.180588
v -0.267461 -3.306703 -0.602488
v -0.664552 -3.237691 -0.566656
v -0.822764 -3.304290 -0.006497
v -0.502589 -3.439759 0.201121
v -0.332392 -0.861967 -0.077701
v -0.312988 -0.815505 -0.528700
v 0.062179 -0.749410 -0.598045
v 0.032311 -0.823239 0.077764
v -0.360932 -0.741149 -0.117919
v -0.347729 -0.698063 -0.463218
v -0.604793 -1.355971 -0.148481
v -0.755271 -1.336343 -0.128073
v -0.625441 -1.393434 -0.313363
v -0.771764 -1.380866 -0.310407
v -0.665754 -2.772939 0.264119
v -0.790823 -2.744639 0.272733
v -0.706260 -2.819210 0.110695
v -0.830593 -2.794823 0.100153
v -0.804641 -2.950987 0.457342
v -0.817229 -2.862004 0.404788
v -0.916143 -2.978266 0.369393
v -0.935675 -2.895712 0.303017
v -0.635813 -2.859797 -0.146520
v -0.398486 -2.914669 -0.011247
v -0.565590 -2.809799 -0.459370
v -0.292431 -2.832964 -0.492136
v -0.847181 -2.941866 0.199227
v -0.682847 -2.842532 -0.596976
v -0.381762 -3.116875 0.492087
v -0.108637 -2.900444 -0.662821
v -0.159112 0.873099 -0.038393
v 0.377110 0.689607 -0.334355
v -0.259430 0.817049 0.403215
v -0.794224 -2.043439 0.113051
v -0.645524 -2.060805 0.093209
v -0.666775 -2.103129 -0.071461
v -0.814986 -2.091198 -0.070530
v 0.204589 0.399259 1.131803
v -0.283644 0.759547 0.839033
v -0.134067 0.581465 -0.021716
v -0.209067 0.468375 0.552075
v 0.268640 0.437427 -0.224084
v 0.143225 0.223219 0.875105
v -0.151538 0.513707 0.277318
v -0.107188 0.552119 1.005213
v 0.058106 0.786308 -0.208052
v -0.102164 0.364500 0.698880
v 0.018932 0.539916 -0.128361
v 0.290591 1.617808 0.990378
v 0.078998 1.660471 0.781806
v 0.431278 1.710133 -0.031314
v 0.730894 1.583759 -0.146156
v 0.123297 1.759024 0.489784
v 0.231954 1.776377 0.079082
v 0.625827 1.444118 1.144383
v 0.165654 0.336630 1.493665
v -0.118283 0.548238 1.225416
v 0.256568 0.563722 1.513319
v -0.478787 1.201758 0.384261
v -0.073298 0.754377 1.254142
v -0.222555 1.129144 -0.040989
v -0.308746 1.008298 0.827096
v 0.113053 1.026424 -0.195411
v 0.472442 0.923720 -0.356685
v 0.434139 0.986413 1.328675
v -0.447259 1.532708 0.435682
v 0.063201 1.217488 0.862601
v -0.250323 1.495401 -0.030503
v -0.318285 1.390995 0.809084
v 0.232458 1.345674 -0.163207
v 0.595032 1.227556 -0.355610
v 0.445779 1.714104 0.095701
v 0.728661 1.602830 0.116955
v 0.455214 1.733066 0.528039
v 0.721164 1.625023 0.552935
v 0.354961 1.657475 0.817999
v 0.682024 1.554469 0.835493
v 0.203310 0.395349 1.123865
v -0.105495 0.546084 0.996091
v -0.280211 1.565148 0.088561
v -0.394279 1.584096 0.280650
v -0.125276 1.691010 0.376848
v -0.112684 1.731317 0.177147
v -0.353083 1.343133 0.111038
v -0.381024 1.337454 0.233153
v -0.412112 1.486179 0.259668
v -0.352475 1.479297 0.132319
v -0.754494 1.844947 0.189016
v -0.734518 1.870328 0.019170
v -0.649130 1.991248 0.048649
v -0.668409 1.953104 0.220200
v -0.832309 1.455913 0.150500
v -0.799803 1.462718 0.031656
v -0.790673 1.556822 0.046804
v -0.827143 1.542509 0.156372
v -0.865861 1.839674 0.244841
v -0.829146 1.884705 -0.059449
v -0.677605 2.101333 -0.006429
v -0.712568 2.033089 0.300892
v -0.884251 1.422992 0.184633
v -0.822767 1.434120 -0.026985
v -0.810569 1.602763 -0.002235
v -0.876975 1.577954 0.193676
v -0.967437 1.911368 0.247576
v -0.930775 1.956571 -0.056724
v -0.779956 2.172995 -0.003556
v -0.815573 2.104902 0.303814
v -0.959514 1.430292 0.163287
v -0.898015 1.441399 -0.048313
v -0.886215 1.610011 -0.023549
v -0.952651 1.585244 0.172298
v -0.980401 2.016756 0.186371
v -0.962196 2.039517 0.033999
v -0.886796 2.147863 0.060645
v -0.904697 2.113743 0.214568
v -0.982829 1.476701 0.102148
v -0.951991 1.482258 -0.003794
v -0.946204 1.566679 0.008600
v -0.980063 1.554337 0.106472
v -0.928347 -2.899328 0.378798
v -0.920935 -2.932262 0.409547
v -0.859916 -2.919567 0.456901
v -0.864048 -2.883888 0.431689
v -1.132152 -2.699541 0.606885
v -1.128579 -2.766447 0.654601
v -1.027043 -2.667116 0.677305
v -1.033360 -2.738361 0.720260
v -0.657647 -2.876219 0.734494
v -0.673752 -2.809166 0.697493
v -0.727337 -2.876020 0.746003
v -0.742509 -2.818867 0.715774
v -1.306288 -2.835835 0.311154
v -1.311643 -2.905320 0.365007
v -1.304861 -2.779074 0.398475
v -1.308008 -2.852275 0.449380
v -1.218807 -2.633293 0.639232
v -1.214484 -2.745731 0.718896
v -1.042668 -2.581030 0.753785
v -1.054971 -2.700924 0.825748
v -0.595084 -2.877537 0.825295
v -0.622358 -2.766846 0.764611
v -0.709816 -2.876496 0.844124
v -0.735311 -2.781254 0.794554
v -1.405487 -2.825548 0.265041
v -1.414333 -2.940321 0.353993
v -1.403130 -2.731793 0.409274
v -1.408329 -2.852703 0.493357
v -1.223468 -2.601163 0.764813
v -1.221846 -2.650635 0.799437
v -1.146939 -2.578372 0.814355
v -1.152313 -2.631151 0.845497
v -0.598872 -2.827824 0.903191
v -0.610921 -2.779506 0.877069
v -0.648613 -2.829687 0.911148
v -0.659739 -2.786521 0.889886
v -1.512100 -2.826551 0.329792
v -1.515934 -2.876296 0.368346
v -1.511078 -2.785915 0.392306
v -1.513331 -2.838320 0.428749
v -0.425213 -1.926480 -0.229455
v 0.006058 -2.057211 -0.376164
v 0.001068 -2.053971 0.304922
v -0.429360 -1.926379 0.177906
v -0.539472 -1.946670 -0.314617
v -0.568204 -2.096688 -0.233512
v 0.005823 -2.099508 -0.502874
v 0.004527 -2.272683 -0.447995
v 0.008968 -1.987861 0.438362
v 0.012844 -2.156280 0.520949
v -0.529088 -2.027934 0.354983
v -0.551248 -1.887112 0.246111
v -0.561771 -1.055358 -0.481665
v -0.724011 -0.812832 -0.453229
v -0.550178 -1.073607 -0.171248
v -0.727527 -0.858839 -0.102654
v -0.607746 -1.048146 -0.450727
v -0.605918 -1.052719 -0.193518
v -0.687670 -0.892736 -0.434094
v -0.702718 -0.924504 -0.145516
v 0.434755 -2.125473 -0.171256
v 0.476022 -2.055359 0.225624
v 0.530787 -0.504698 0.144481
v 0.572034 -0.519926 -0.352773
v 0.244993 -0.162835 0.061099
v 0.258058 -0.144512 -0.094655
v 0.388015 0.159416 0.269537
v 0.477152 0.205415 -0.043856
v 0.418726 -2.311360 -0.207428
v 0.503848 -2.182712 0.224117
v 0.476176 -2.424619 -0.038134
v 0.254666 -2.607126 -0.128016
v 0.369066 -2.480670 0.189328
v 0.551409 -2.344754 0.133232
v 0.338339 -2.763596 0.016061
v 0.440167 -2.777138 0.028991
v 0.524335 -2.670168 0.141776
v 0.448149 -2.618369 0.190155
v 0.332437 -1.242498 -0.125360
v 0.346979 -1.224059 -0.515564
v 0.044872 -2.888709 -0.123617
v 0.437157 -3.003976 -0.114972
v 0.706938 -2.691171 0.215154
v 0.445526 -2.427685 0.377286
v -0.028040 -3.225044 0.398928
v 0.360254 -3.345363 0.396042
v 0.661130 -2.996503 0.764218
v 0.400513 -2.728145 0.923341
v 0.363501 -0.944530 -0.015011
v 0.392370 -0.910598 -0.468713
v 0.422221 -0.843021 -0.024986
v 0.452904 -0.831341 -0.372346
v 0.639626 -1.620124 -0.084814
v 0.788576 -1.584110 -0.070156
v 0.643025 -1.592908 -0.253827
v 0.790032 -1.555148 -0.259681
v 0.807015 -2.899662 -0.573519
v 0.951659 -2.900231 -0.577360
v 0.798609 -2.786085 -0.707116
v 0.942414 -2.776600 -0.727974
v 1.047128 -3.148798 -0.864262
v 1.091886 -3.028855 -0.862098
v 0.968050 -3.120160 -0.984349
v 0.995606 -2.993010 -0.993771
v 0.565075 -2.825300 0.273254
v 0.390405 -2.645441 0.379902
v 0.399342 -3.017464 0.070450
v 0.136227 -2.940154 0.068870
v 0.880187 -2.702983 0.549981
v 0.456600 -3.194126 0.031644
v 0.510218 -2.322024 0.775870
v -0.099394 -3.028857 0.029899
v 0.870001 0.457740 0.000446
v 0.874515 0.359380 0.446011
v 0.985262 -2.297028 -0.138265
v 0.840008 -2.335402 -0.153587
v 0.844802 -2.307987 -0.322658
v 0.987733 -2.267271 -0.326747
v 0.823775 0.312584 0.880828
v 0.648625 0.268748 0.008125
v 0.586985 0.147082 0.582118
v 0.594936 0.212607 0.305508
v 0.542545 0.289881 1.029734
v 0.664924 0.541392 -0.185150
v 0.428723 0.150230 0.718916
v 0.515741 0.344084 -0.109166
v 0.996840 1.332759 1.017033
v 1.191807 1.211332 0.823804
v 1.026108 1.470055 -0.008865
v 1.247270 1.305379 0.532204
v 1.207939 1.382462 0.115916
v 0.533542 0.285157 1.250017
v 1.299899 0.483866 0.451391
v 0.642306 0.465553 1.281149
v 1.093218 0.598087 0.008670
v 1.015023 0.474014 0.877056
v 0.791137 0.752744 -0.169820
v 1.503383 0.745413 0.509301
v 0.890791 0.883466 0.893835
v 1.366392 0.842882 0.030513
v 1.288357 0.742541 0.869720
v 0.924682 1.066287 -0.137082
v 1.010219 1.486291 0.117004
v 0.988565 1.517801 0.548168
v 0.989315 1.401444 0.841940
v 0.537737 0.286470 1.020367
v 1.428480 0.875507 0.153049
v 1.511034 0.815096 0.352558
v 1.385848 1.081107 0.433880
v 1.417701 1.113641 0.234906
v 1.325404 0.665682 0.174385
v 1.333605 0.645416 0.297865
v 1.457309 0.731665 0.330222
v 1.417990 0.764722 0.199138
v 1.956359 0.750824 0.291326
v 1.970629 0.778509 0.121264
v 1.991265 0.925563 0.148300
v 1.967536 0.889215 0.319683
v 1.744993 0.415693 0.247770
v 1.734084 0.440020 0.127287
v 1.791791 0.514518 0.144269
v 1.800941 0.481793 0.255558
v 2.029017 0.671277 0.354096
v 2.053612 0.721200 0.049349
v 2.091594 0.983661 0.098083
v 2.049453 0.918315 0.405133
v 1.757237 0.356865 0.284325
v 1.734541 0.401969 0.069530
v 1.841100 0.532527 0.097841
v 1.858862 0.473748 0.296929
v 2.151449 0.652560 0.365286
v 2.176202 0.702570 0.060536
v 2.214552 0.964387 0.109459
v 2.172980 0.898697 0.416605
v 1.817701 0.309386 0.268102
v 1.794979 0.354485 0.053324
v 1.901801 0.484744 0.081674
v 1.919617 0.425973 0.280700
v 2.237786 0.717869 0.307829
v 2.250377 0.742896 0.155245
v 2.269649 0.873896 0.179772
v 2.248863 0.840940 0.333587
v 1.870573 0.325045 0.209838
v 1.859160 0.347654 0.102301
v 1.912732 0.412789 0.116499
v 1.922132 0.382987 0.216003
v 1.057658 -3.046149 -1.000670
v 1.044533 -3.104566 -0.994406
v 1.085541 -3.121853 -0.930215
v 1.105492 -3.065546 -0.930218
v 1.307176 -3.106640 -1.238848
v 1.287854 -3.193543 -1.229792
v 1.390330 -3.125135 -1.135940
v 1.363458 -3.212331 -1.136108
v 1.301859 -3.264121 -0.728825
v 1.341775 -3.176772 -0.727335
v 1.324839 -3.273472 -0.825644
v 1.360569 -3.200065 -0.826057
v 0.918526 -3.021043 -1.329905
v 0.902985 -3.107523 -1.323839
v 1.018018 -3.048577 -1.343760
v 0.998215 -3.135091 -1.334661
v 1.361404 -3.095090 -1.337761
v 1.329488 -3.238633 -1.322801
v 1.498753 -3.125639 -1.167780
v 1.454368 -3.269666 -1.168058
v 1.357845 -3.325454 -0.666874
v 1.424026 -3.181405 -0.664420
v 1.399645 -3.338834 -0.826722
v 1.458925 -3.217041 -0.827386
v 0.877666 -2.989670 -1.426955
v 0.851996 -3.132513 -1.416937
v 1.042003 -3.035149 -1.449842
v 1.009293 -3.178049 -1.434812
v 1.467117 -3.168502 -1.354757
v 1.453284 -3.230716 -1.348274
v 1.526647 -3.181742 -1.281085
v 1.507409 -3.244167 -1.281205
v 1.469132 -3.330654 -0.679710
v 1.497880 -3.268290 -0.678648
v 1.487564 -3.336354 -0.748988
v 1.513235 -3.283484 -0.749272
v 0.901022 -3.049113 -1.534105
v 0.889896 -3.111024 -1.529762
v 0.972249 -3.068824 -1.544024
v 0.958072 -3.130760 -1.537510
v 0.434486 -1.931266 -0.230653
v 0.438116 -1.926916 0.163909
v 0.551628 -1.949878 -0.315301
v 0.572138 -2.117743 -0.237110
v 0.553223 -2.017469 0.337118
v 0.568659 -1.880070 0.217795
v 0.539423 -1.244250 -0.302319
v 0.775397 -1.071165 -0.281589
v 0.501223 -1.257464 0.010992
v 0.727157 -1.069149 0.075304
v 0.588287 -1.252701 -0.269289
v 0.564080 -1.260247 -0.006757
v 0.714440 -1.133273 -0.259344
v 0.686220 -1.133548 0.037778
v -0.430624 -0.467356 0.043899
v -0.577509 -0.662667 -0.027810
v -0.571200 -0.616631 -0.442301
v -0.414882 -0.424256 -0.431132
v -0.461000 -0.877122 -0.472882
v -0.467400 -0.910999 -0.147129
v -0.443115 -2.085503 0.044653
v -0.370057 -0.374395 -0.179277
v -0.007225 -0.111170 -0.030888
v -0.046948 0.368597 0.094050
v -0.459168 -2.232221 -0.012831
v 0.006283 -2.719303 -0.038232
v -0.507966 -2.384677 -0.033793
v -0.311471 -2.550384 -0.133950
v -0.519443 -2.670651 -0.191995
v -0.423225 -2.697688 -0.185585
v -0.334175 -1.205637 -0.334944
v -0.652310 -2.676325 -0.275249
v -0.275958 -2.727443 -0.201610
v -0.740510 -3.267542 -0.286840
v -0.382214 -3.381976 -0.198799
v -0.319479 -0.838326 -0.302830
v -0.352662 -0.720278 -0.290353
v -0.614451 -1.374852 -0.230529
v -0.763452 -1.358414 -0.219264
v -0.685454 -2.795749 0.187076
v -0.810101 -2.769567 0.186063
v -0.859208 -2.965564 0.412508
v -0.875871 -2.881250 0.353283
v -0.350897 -2.869592 -0.253062
v -0.602861 -2.834814 -0.303186
v -0.244009 -2.995365 -0.087616
v -0.773866 -2.903494 -0.197848
v -0.271537 0.788298 0.621124
v -0.804602 -2.067321 0.021260
v -0.656149 -2.081967 0.010874
v -0.180301 0.491041 0.414697
v 0.101148 1.709747 0.635795
v -0.393767 1.105028 0.605679
v -0.382772 1.461851 0.622383
v 0.405087 1.695270 0.673019
v 0.701594 1.589746 0.694214
v -0.896460 -2.890097 0.405554
v -0.890775 -2.924902 0.433545
v -1.079450 -2.684243 0.641915
v -1.080972 -2.752625 0.687412
v -1.130968 -2.607136 0.696660
v -1.134985 -2.723150 0.772506
v -1.185327 -2.589499 0.789689
v -1.187271 -2.640469 0.822631
v -0.427339 -1.926423 -0.025574
v -0.549339 -2.063382 0.061377
v -0.544751 -1.916057 -0.034348
v -0.574558 -0.639591 -0.235064
v -0.463844 -0.895010 -0.309845
v -0.554664 -1.057618 -0.327870
v -0.724679 -0.837017 -0.276819
v -0.608641 -1.055182 -0.321630
v -0.696917 -0.912352 -0.289543
v 0.459050 -2.084332 0.025154
v 0.551192 -0.513783 -0.104057
v 0.251450 -0.154410 -0.016685
v 0.432653 0.182280 0.112839
v 0.468819 -2.234543 0.003975
v 0.514561 -2.385374 0.046922
v 0.310628 -2.546887 0.031022
v 0.482203 -2.723832 0.085542
v 0.392186 -2.693282 0.104501
v 0.338526 -1.232468 -0.319607
v 0.572048 -2.847574 0.050091
v 0.244963 -2.658340 0.126497
v 0.510692 -3.170933 0.580130
v 0.186237 -2.976594 0.661135
v 0.375484 -0.927139 -0.240151
v 0.436954 -0.837293 -0.198275
v 0.641172 -1.606609 -0.169522
v 0.788856 -1.569902 -0.165508
v 0.802114 -2.844825 -0.640102
v 0.945345 -2.840156 -0.652288
v 1.006034 -3.133903 -0.924289
v 1.043311 -3.011625 -0.927959
v 0.263316 -2.792798 0.224386
v 0.482209 -2.921382 0.171852
v 0.205412 -2.675440 0.402885
v 0.668393 -2.948555 0.290812
v 0.849145 0.335982 0.663420
v 0.986454 -2.281983 -0.232482
v 0.842405 -2.321694 -0.238123
v 0.590962 0.179846 0.443814
v 1.219539 1.258355 0.678004
v 1.157461 0.478940 0.664223
v 1.395870 0.743977 0.689511
v 0.988940 1.459623 0.695054
v 1.082175 -3.055346 -0.965426
v 1.065745 -3.112748 -0.962294
v 1.348753 -3.115888 -1.187394
v 1.325656 -3.202937 -1.182950
v 1.430079 -3.110364 -1.252771
v 1.391928 -3.254150 -1.245430
v 1.496882 -3.175122 -1.317921
v 1.480346 -3.237442 -1.314739
v 0.434072 -1.932855 -0.032420
v 0.563282 -2.066669 0.049706
v 0.554909 -1.923641 -0.045884
v 0.520141 -1.249740 -0.145316
v 0.750521 -1.069462 -0.103736
v 0.575957 -1.256158 -0.138066
v 0.699743 -1.132529 -0.110826
v -0.422890 -0.445898 -0.193616
v 0.631696 -0.783929 0.107953
v 0.504000 -1.040859 -0.337172
v 0.468242 -1.048747 -0.005548
v 0.679416 -0.792113 -0.319313
v 0.655642 -0.788796 -0.105693
v 0.485024 -1.045234 -0.171628
v 0.560924 -0.589011 0.133561
v 0.604421 -0.602403 -0.342703
v 0.449111 -0.901668 -0.189496
v 0.582537 -0.596816 -0.104495
v -0.209684 -0.240531 0.056836
v -0.191336 -0.214150 -0.269057
v 0.128386 -0.210237 -0.325166
v 0.095184 -0.273586 0.149465
v 0.407128 -0.314900 0.094855
v 0.433210 -0.320438 -0.230515
v 0.419802 -0.320805 -0.067578
v -0.200325 -0.227444 -0.106109
vn 0.0183 -0.6705 0.7417
vn -0.5805 -0.7186 0.3830
vn -0.8097 -0.1441 0.5689
vn 0.0203 -0.8117 0.5838
vn -0.3327 0.9410 0.0623
vn -0.1470 0.9820 -0.1186
vn -0.1426 0.9821 -0.1226
vn -0.3227 0.9451 0.0525
vn -0.8494 -0.2867 -0.4432
vn -0.2320 -0.6713 -0.7039
vn -0.1547 -0.2907 -0.9442
vn -0.1536 -0.2910 -0.9443
vn -0.0975 -0.2775 0.9558
vn -0.0570 0.0739 0.9956
vn -0.7295 0.3357 0.5960
vn -0.7728 -0.2212 0.5949
vn -0.9924 0.1169 0.0393
vn -0.9909 0.0646 0.1177
vn -0.9913 0.0600 0.1175
vn -0.9929 0.1117 0.0408
vn -0.4978 0.6891 0.5266
vn -0.0143 0.3995 0.9166
vn -0.9940 -0.1033 -0.0371
vn -0.8267 -0.3612 0.4314
vn 0.2352 0.1871 0.9538
vn 0.2316 0.1937 0.9533
vn 0.1900 -0.6537 0.7326
vn 0.1713 0.8254 -0.5379
vn -0.4036 0.8751 -0.2671
vn -0.6047 0.6408 -0.4730
vn 0.1126 0.4654 -0.8779
vn -0.8928 0.4500 0.0181
vn -0.7227 0.2997 0.6228
vn -0.7963 -0.5968 0.0986
vn -0.9562 -0.2789 -0.0884
vn -0.7685 -0.2094 -0.6046
vn -0.0659 -0.2277 -0.9715
vn -0.1389 0.1470 -0.9793
vn 0.0603 0.1017 -0.9930
vn 0.1694 -0.0559 -0.9840
vn -0.6024 0.1575 -0.7825
vn -0.8695 0.2041 -0.4498
vn -0.3461 0.1388 -0.9279
vn 0.0284 0.9838 -0.1770
vn -0.3584 0.9042 -0.2324
vn -0.0913 0.0505 0.9945
vn -0.3395 -0.8121 0.4746
vn -0.6932 0.0348 -0.7199
vn -0.5781 0.6095 -0.5425
vn 0.1546 0.5329 -0.8319
vn 0.0796 0.1131 -0.9904
vn -0.9923 0.1215 -0.0234
vn -0.9951 0.0953 -0.0282
vn -0.9758 0.2145 -0.0412
vn 0.0097 -0.9998 0.0169
vn -0.5035 -0.6981 0.5090
vn -0.4704 -0.8819 -0.0329
vn -0.9320 -0.1227 0.3412
vn 0.1445 0.9541 0.2622
vn -0.4130 0.8992 0.1442
vn -0.0269 0.9714 0.2359
vn 0.1295 0.9534 0.2723
vn -0.9713 0.2164 -0.0992
vn -0.7095 0.7047 -0.0066
vn -0.3480 -0.4342 0.8309
vn 0.7853 -0.6156 0.0660
vn 0.7917 -0.6071 0.0681
vn 0.7844 -0.6167 0.0657
vn -0.8652 -0.0790 -0.4951
vn -0.7628 -0.0383 -0.6454
vn 0.0180 -0.1533 -0.9880
vn 0.0017 -0.3140 -0.9494
vn 0.0055 0.4282 0.9036
vn -0.0429 0.1629 0.9857
vn -0.8543 0.0966 0.5107
vn -0.1256 0.4268 0.8956
vn -0.9925 0.1220 -0.0108
vn -0.9965 0.0824 -0.0169
vn 0.0486 0.9935 0.1027
vn -0.1238 0.9837 0.1303
vn -0.5998 -0.4125 0.6856
vn -0.8984 -0.2700 0.3463
vn -0.8094 -0.5826 0.0735
vn -0.5478 -0.7414 0.3876
vn 0.1523 0.9800 0.1278
vn 0.2164 0.9554 0.2010
vn 0.2132 0.9565 0.1990
vn -0.9724 -0.0147 -0.2327
vn -0.6437 -0.0848 -0.7605
vn -0.5717 -0.5116 -0.6415
vn -0.9719 -0.0198 -0.2346
vn -0.1155 -0.0916 -0.9891
vn -0.1924 -0.5460 -0.8154
vn 0.9071 -0.3866 0.1662
vn 0.8948 -0.4171 0.1594
vn 0.9073 -0.3861 0.1664
vn -0.4178 -0.1647 -0.8935
vn -0.4130 0.0782 -0.9074
vn -0.9928 -0.1098 -0.0479
vn -0.0542 0.0909 -0.9944
vn -0.0559 0.0943 -0.9940
vn -0.3621 -0.6463 0.6717
vn -0.1515 -0.9798 -0.1303
vn -0.5981 0.8005 0.0386
vn -0.8834 -0.4685 -0.0075
vn -0.9137 -0.3743 -0.1582
vn 0.1509 0.2668 0.9519
vn 0.1516 0.2692 0.9511
vn 0.2230 0.4283 0.8757
vn 0.2202 0.4217 0.8796
vn 0.9869 -0.0877 -0.1356
vn 0.9949 -0.0641 -0.0774
vn 0.9953 -0.0562 -0.0785
vn 0.9875 -0.0832 -0.1338
vn -0.0182 -0.2799 -0.9599
vn -0.0190 -0.2813 -0.9594
vn -0.1335 -0.5409 -0.8304
vn -0.1162 -0.5043 -0.8557
vn -0.1682 -0.6853 -0.7085
vn -0.1895 -0.7074 -0.6810
vn 0.6465 -0.7601 -0.0649
vn 0.8606 -0.4789 -0.1733
vn 0.8618 -0.4802 -0.1635
vn -0.9906 0.0694 0.1179
vn -0.9180 0.3598 0.1666
vn -0.8951 0.4085 0.1786
vn 0.0759 -0.9644 0.2532
vn 0.1478 -0.9282 0.3414
vn 0.6608 0.5576 0.5025
vn 0.9757 0.1342 -0.1733
vn -0.2570 0.9647 -0.0581
vn -0.5233 0.8411 0.1369
vn -0.2554 -0.7666 0.5891
vn -0.2653 -0.8047 0.5312
vn -0.0358 -0.9123 0.4079
vn -0.0479 -0.9060 0.4205
vn 0.8690 -0.4817 0.1130
vn 0.8754 -0.4733 0.0979
vn 0.8684 -0.4824 0.1143
vn -0.5698 -0.3849 -0.7261
vn -0.1458 -0.3945 -0.9073
vn -0.6655 -0.3680 -0.6494
vn -0.4616 -0.7054 0.5380
vn -0.7535 -0.6068 0.2530
vn -0.8398 -0.5306 0.1148
vn -0.9329 -0.2545 -0.2547
vn -0.9330 -0.2540 -0.2551
vn 0.5414 0.7981 0.2645
vn 0.3672 0.8751 0.3153
vn 0.2201 0.9179 0.3303
vn 0.5472 0.7900 0.2766
vn 0.3174 0.9480 -0.0254
vn 0.3356 0.9420 -0.0043
vn -0.1729 0.9726 0.1556
vn 0.0235 0.9572 0.2884
vn -0.7046 -0.6145 0.3548
vn -0.6819 -0.7235 0.1078
vn -0.9461 -0.2350 0.2227
vn -0.6627 -0.7253 0.1862
vn -0.3632 -0.8717 0.3290
vn -0.2373 -0.9490 -0.2076
vn -0.2372 -0.9490 -0.2076
vn -0.3461 -0.8140 0.4665
vn -0.3756 -0.9214 0.0994
vn -0.9320 -0.3248 -0.1606
vn -0.8561 -0.2148 -0.4700
vn -0.3948 0.3661 0.8427
vn 0.1021 0.3403 0.9348
vn 0.1855 0.5366 0.8232
vn -0.1715 0.7076 0.6855
vn 0.3428 0.8802 0.3283
vn 0.1392 0.9449 0.2963
vn -0.0091 0.9360 -0.3518
vn -0.5776 0.1636 -0.7998
vn 0.1571 -0.6914 -0.7052
vn 0.8091 0.3284 -0.4873
vn -0.6683 0.3986 0.6281
vn -0.3019 0.7527 0.5850
vn -0.7804 0.4801 0.4007
vn -0.2166 0.9186 0.3306
vn -0.2649 0.3290 -0.9064
vn -0.5345 0.3361 -0.7755
vn -0.0524 0.9110 -0.4091
vn 0.0843 0.8331 -0.5467
vn 0.1178 0.2010 -0.9725
vn 0.3094 0.7070 -0.6360
vn -0.8073 -0.4627 0.3663
vn -0.3663 -0.9204 -0.1368
vn -0.0430 -0.2010 -0.9786
vn -0.4812 -0.0573 -0.8748
vn -0.3918 0.0991 -0.9147
vn 0.0322 -0.0137 -0.9994
vn -0.7769 -0.1750 -0.6048
vn -0.6808 -0.1009 -0.7255
vn -0.9638 -0.2635 -0.0399
vn -0.8546 0.0871 0.5120
vn -0.9608 -0.1880 0.2036
vn -0.6242 0.3141 0.7153
vn -0.9336 -0.3218 -0.1578
vn -0.9821 -0.1644 -0.0917
vn -0.0925 -0.1369 0.9863
vn 0.0175 0.1359 0.9906
vn -0.2133 0.9280 0.3054
vn 0.5711 0.2236 0.7898
vn 0.2967 0.9542 -0.0386
vn -0.1175 0.9743 0.1920
vn 0.2353 0.9611 0.1445
vn 0.3755 0.9252 -0.0551
vn 0.1570 0.9410 0.2997
vn 0.3661 0.9201 0.1392
vn 0.3464 0.8868 0.3060
vn -0.5017 -0.1827 -0.8455
vn -0.1209 -0.3883 -0.9136
vn -0.8346 0.5373 0.1219
vn -0.9824 -0.0148 0.1864
vn -0.8623 -0.3208 -0.3919
vn -0.6918 -0.2548 -0.6756
vn -0.6287 0.7271 -0.2758
vn -0.4477 0.6584 -0.6051
vn 0.7263 0.4541 -0.5161
vn 0.5771 0.1854 0.7954
vn 0.7525 0.6069 -0.2556
vn 0.6505 -0.6159 -0.4444
vn 0.5285 -0.6190 -0.5810
vn 0.6198 0.6702 -0.4083
vn -0.2376 -0.1581 0.9584
vn 0.4834 0.4703 0.7383
vn 0.3348 -0.6862 0.6458
vn -0.1150 -0.8980 0.4247
vn -0.2494 -0.5402 -0.8037
vn -0.1578 0.7517 -0.6403
vn 0.2344 0.5494 0.8020
vn -0.5424 0.6147 0.5726
vn -0.0284 -0.6150 -0.7880
vn 0.1657 -0.6977 0.6969
vn -0.1838 -0.8377 0.5142
vn -0.7588 -0.3975 0.5160
vn -0.0159 0.6006 0.7994
vn -0.5656 0.7344 0.3751
vn -0.9486 0.2265 0.2211
vn -0.6128 -0.6341 0.4716
vn -0.9639 -0.2628 -0.0427
vn -0.8208 -0.2123 -0.5303
vn 0.1179 0.8641 -0.4893
vn -0.6179 -0.1875 -0.7636
vn -0.8896 0.3088 -0.3366
vn -0.5143 0.8371 -0.1865
vn -0.9298 0.3681 0.0042
vn -0.7749 0.4285 -0.4647
vn -0.0231 0.9720 -0.2340
vn 0.2736 0.8620 -0.4267
vn 0.2787 0.8556 -0.4362
vn -0.0867 -0.9899 0.1126
vn -0.1188 -0.9798 0.1610
vn -0.0721 0.9596 -0.2720
vn 0.2209 0.7418 -0.6332
vn 0.2220 0.7380 -0.6373
vn 0.0935 0.8455 -0.5257
vn 0.0710 0.8622 -0.5015
vn -0.8214 -0.4055 -0.4010
vn -0.7159 -0.4510 -0.5330
vn -0.7057 -0.4543 -0.5437
vn 0.8854 0.2369 0.4000
vn 0.9517 0.1151 0.2847
vn 0.9485 0.1226 0.2920
vn 0.0185 0.8382 -0.5451
vn 0.0120 0.8383 -0.5451
vn -0.4768 0.8754 0.0796
vn -0.3583 0.9295 -0.0878
vn -0.8068 0.5889 0.0476
vn -0.2527 0.9303 -0.2659
vn -0.9164 0.0468 0.3974
vn -0.9623 -0.0927 0.2556
vn 0.8645 -0.0966 -0.4932
vn 0.8500 -0.1010 -0.5171
vn -0.1744 0.9695 -0.1725
vn -0.1608 0.9801 -0.1160
vn 0.0977 -0.6238 -0.7755
vn 0.1082 -0.6231 -0.7746
vn 0.2175 0.6006 0.7694
vn 0.2877 0.5601 0.7768
vn 0.2825 0.5633 0.7765
vn 0.0732 -0.9000 0.4297
vn -0.2219 -0.7583 0.6130
vn 0.0781 -0.8205 0.5662
vn 0.0652 -0.8189 0.5703
vn -0.7540 0.6498 0.0963
vn -0.4264 0.8663 0.2602
vn -0.0881 -0.8416 0.5329
vn -0.0810 -0.8422 0.5330
vn -0.7816 -0.0996 0.6157
vn -0.8056 -0.5839 -0.1004
vn 0.9546 0.0769 -0.2879
vn 0.9158 0.0042 -0.4015
vn 0.5618 0.7467 0.3561
vn 0.6861 -0.1469 0.7125
vn -0.1386 -0.8205 0.5546
vn -0.1406 -0.8190 0.5564
vn -0.8872 0.0013 0.4614
vn -0.9315 -0.0632 0.3583
vn -0.0744 -0.6073 -0.7910
vn -0.0648 -0.6082 -0.7912
vn 0.8086 0.2409 0.5367
vn 0.8195 0.2323 0.5239
vn 0.0481 -0.9528 0.2998
vn 0.0329 -0.9756 0.2171
vn -0.0178 0.5714 0.8205
vn -0.0097 0.5712 0.8208
vn -0.6773 -0.7315 0.0786
vn -0.8802 -0.2974 -0.3698
vn -0.5310 -0.0986 0.8416
vn -0.1515 0.0615 0.9865
vn -0.0650 0.8604 0.5055
vn -0.3601 0.6620 0.6573
vn -0.2101 -0.2104 0.9548
vn -0.7609 0.1641 -0.6278
vn -0.7392 0.6657 0.1020
vn -0.7910 -0.1433 0.5948
vn 0.0912 0.9940 -0.0596
vn 0.0645 0.9761 -0.2076
vn 0.0707 0.9733 -0.2185
vn 0.0841 0.9947 -0.0599
vn -0.0082 -0.9481 0.3179
vn -0.1106 -0.9698 0.2175
vn -0.1066 -0.9725 0.2073
vn -0.0047 -0.9484 0.3169
vn 0.0019 0.9355 -0.3532
vn 0.0020 0.9355 -0.3532
vn -0.9996 0.0154 0.0221
vn -0.9979 0.0623 0.0168
vn -0.7853 -0.1673 -0.5961
vn -0.8904 -0.0907 -0.4460
vn 0.0079 0.5311 0.8472
vn 0.0063 0.5310 0.8473
vn -0.1687 0.5085 0.8443
vn -0.0035 -0.3475 -0.9377
vn -0.0023 -0.3475 -0.9377
vn 0.0118 -0.9518 0.3065
vn -0.3379 -0.9134 0.2269
vn -0.0015 0.9482 -0.3176
vn 0.2538 0.9488 -0.1879
vn 0.2433 0.9557 -0.1658
vn -0.0169 0.9481 -0.3177
vn -0.1846 -0.9803 0.0701
vn -0.2103 -0.9750 0.0715
vn 0.8626 -0.5042 -0.0411
vn 0.8655 -0.4994 -0.0386
vn 0.8838 -0.4654 -0.0492
vn 0.8779 -0.4766 -0.0458
vn 0.1839 -0.3770 0.9078
vn -0.7721 -0.0566 0.6330
vn -0.1965 -0.7735 0.6025
vn 0.1353 -0.3470 0.9281
vn -0.7948 0.6047 0.0516
vn -0.9904 0.1382 -0.0051
vn -0.8000 0.5981 0.0484
vn -0.3521 -0.5514 -0.7563
vn -0.7879 0.1585 -0.5951
vn -0.1525 -0.9877 -0.0356
vn 0.8320 -0.0447 0.5530
vn 0.5368 -0.7656 0.3546
vn 0.5407 0.3439 -0.7677
vn 0.3223 0.3006 -0.8977
vn 0.3163 0.2992 -0.9002
vn 0.7804 -0.4541 -0.4298
vn -0.0152 0.0311 -0.9994
vn -0.0167 0.0328 -0.9993
vn -0.1125 -0.6900 -0.7151
vn 0.5916 -0.4147 0.6914
vn 0.7055 0.1705 0.6879
vn 0.9720 0.2268 0.0610
vn 0.9714 0.2301 0.0580
vn 0.9901 0.1401 0.0092
vn 0.9936 0.1131 0.0050
vn 0.5924 0.6016 0.5359
vn 0.9658 -0.2432 0.0899
vn 0.6270 -0.4870 0.6081
vn -0.2010 -0.7186 0.6657
vn -0.0706 -0.1761 0.9818
vn -0.0706 -0.1768 0.9817
vn 0.8086 0.3967 -0.4344
vn 0.6705 0.7043 -0.2334
vn 0.9848 0.1258 0.1201
vn 0.6234 -0.7819 -0.0066
vn 0.2055 -0.9583 0.1985
vn 0.6674 0.0605 0.7423
vn 0.5096 -0.6292 -0.5869
vn 0.2641 0.0503 -0.9632
vn 0.6854 -0.1083 -0.7201
vn 0.8426 -0.1795 -0.5078
vn 0.4768 0.2496 -0.8428
vn 0.2248 0.4034 -0.8870
vn 0.5875 -0.4499 -0.6727
vn 0.7501 -0.1251 -0.6493
vn 0.8106 0.3605 -0.4614
vn 0.9823 0.0921 -0.1628
vn 0.9608 0.1345 -0.2424
vn 0.9830 0.0129 -0.1830
vn 0.4994 -0.8644 0.0584
vn 0.4558 -0.3366 0.8240
vn 0.9599 0.0374 0.2778
vn 0.1671 0.7134 -0.6806
vn 0.1862 0.7142 -0.6747
vn 0.3182 0.6232 -0.7144
vn 0.5852 0.4126 -0.6981
vn 0.9265 0.0412 -0.3741
vn 0.7159 0.2022 -0.6683
vn 0.3575 0.0590 0.9321
vn -0.8394 -0.2130 0.5000
vn -0.8330 -0.2244 0.5057
vn -0.7842 -0.3016 0.5422
vn 0.8751 -0.0684 -0.4791
vn 0.7673 -0.0945 -0.6342
vn 0.1293 0.4228 0.8969
vn 0.8226 0.0230 0.5681
vn 0.9895 0.1438 0.0139
vn 0.9995 0.0038 0.0316
vn 0.3833 0.4978 -0.7780
vn 0.2387 0.5188 -0.8209
vn 0.6057 0.1219 0.7863
vn 0.3411 -0.2118 0.9159
vn 0.5340 -0.5433 0.6478
vn 0.8282 -0.2531 0.5000
vn 0.1204 0.6115 -0.7820
vn 0.0589 0.7197 -0.6918
vn 0.0514 0.7240 -0.6879
vn 0.7822 -0.6209 -0.0509
vn 0.1546 -0.9751 0.1589
vn 0.2922 -0.9099 -0.2943
vn -0.2888 -0.9552 0.0641
vn -0.2631 -0.8684 -0.4203
vn -0.8599 0.3627 0.3591
vn 0.5995 -0.1924 -0.7769
vn 0.6960 -0.3523 -0.6257
vn 0.9311 -0.3630 0.0365
vn 0.8263 -0.5625 0.0280
vn 0.2222 -0.5222 0.8234
vn 0.7768 0.6263 0.0660
vn 0.4039 -0.9076 -0.1150
vn 0.3080 -0.9508 0.0344
vn -0.0082 -0.3894 0.9210
vn 0.1867 -0.6158 0.7655
vn 0.2472 -0.6212 0.7436
vn -0.0203 -0.3398 0.9403
vn -0.9938 -0.1102 -0.0156
vn -0.9902 -0.1380 -0.0233
vn -0.9722 -0.2234 -0.0704
vn -0.9728 -0.2204 -0.0716
vn -0.1151 0.3411 -0.9329
vn -0.1261 0.3907 -0.9118
vn -0.3603 0.5613 -0.7451
vn -0.8155 0.4329 -0.3840
vn -0.9128 0.3675 -0.1780
vn -0.3267 0.5745 -0.7505
vn -0.6768 -0.7321 -0.0775
vn -0.9625 -0.2714 0.0037
vn -0.9562 -0.2928 -0.0046
vn 0.9650 0.2608 -0.0289
vn 0.9761 0.2110 -0.0522
vn 0.9963 0.0859 0.0041
vn -0.4221 -0.8836 -0.2027
vn -0.4490 -0.8703 -0.2022
vn -0.0725 -0.2206 0.9727
vn 0.0536 -0.3423 0.9381
vn 0.7580 0.6369 -0.1406
vn 0.6524 0.7454 -0.1373
vn -0.0979 -0.9828 -0.1564
vn -0.3952 -0.9117 0.1119
vn -0.4052 -0.9062 0.1206
vn -0.1595 -0.9654 -0.2063
vn -0.8507 0.2284 0.4735
vn -0.8507 0.2286 0.4733
vn -0.8500 0.2247 0.4764
vn 0.1718 -0.9845 -0.0355
vn 0.2967 -0.9549 -0.0080
vn -0.2779 -0.9525 -0.1243
vn 0.4483 -0.0977 0.8885
vn 0.6893 -0.5108 0.5137
vn 0.6394 -0.3968 0.6585
vn 0.7038 -0.7044 0.0923
vn -0.2001 0.7876 -0.5828
vn 0.1907 0.7312 -0.6549
vn 0.0209 0.7712 -0.6362
vn -0.0705 0.5539 -0.8296
vn -0.0672 0.5472 -0.8343
vn 0.3598 0.6300 -0.6882
vn 0.4657 0.4808 -0.7429
vn 0.0567 -0.9218 0.3835
vn 0.5017 -0.8194 0.2773
vn -0.0192 -0.9910 0.1328
vn -0.0386 -0.9774 0.2077
vn -0.1898 -0.6306 0.7526
vn 0.4445 -0.8880 -0.1182
vn 0.4817 -0.7677 -0.4226
vn 0.4826 0.0120 0.8758
vn 0.5692 0.4087 0.7134
vn 0.5360 0.7847 0.3113
vn 0.6783 0.6586 -0.3258
vn -0.3214 0.7847 -0.5300
vn -0.5464 -0.4074 -0.7317
vn 0.5798 -0.3035 -0.7561
vn 0.7153 -0.1598 0.6803
vn 0.7006 0.3481 0.6229
vn 0.8670 -0.1848 0.4628
vn 0.7709 0.5200 0.3679
vn 0.4770 0.0296 -0.8784
vn 0.5525 0.6441 -0.5290
vn 0.6957 0.6090 -0.3809
vn 0.6669 -0.1488 -0.7301
vn 0.2349 -0.8833 0.4056
vn 0.4092 -0.2241 -0.8845
vn 0.3601 -0.4015 -0.8421
vn 0.4657 -0.5636 -0.6822
vn 0.4727 -0.6821 -0.5579
vn 0.5116 -0.8591 0.0157
vn 0.5461 -0.7962 0.2604
vn 0.6405 -0.5164 0.5684
vn 0.6194 -0.1879 0.7623
vn 0.5969 -0.8017 -0.0321
vn 0.4564 -0.8834 -0.1062
vn 0.7767 0.5285 0.3428
vn -0.3061 0.5777 0.7567
vn 0.4511 0.8919 -0.0328
vn 0.4881 0.8591 0.1541
vn 0.7474 0.6253 0.2247
vn 0.5203 0.7944 0.3134
vn 0.2836 -0.5091 -0.8126
vn 0.6827 -0.6869 0.2493
vn 0.9636 -0.1885 0.1898
vn 0.3637 -0.6808 -0.6358
vn 0.4219 -0.8391 -0.3435
vn 0.9732 0.0806 -0.2153
vn 0.8170 0.1479 -0.5573
vn -0.3372 0.5544 0.7609
vn -0.1730 0.8170 -0.5500
vn -0.1028 0.9521 -0.2879
vn 0.0463 0.9017 -0.4300
vn -0.7708 -0.0946 -0.6301
vn -0.8651 -0.0042 -0.5016
vn -0.0012 -0.2535 0.9673
vn -0.7579 -0.2452 0.6046
vn -0.0687 0.6932 0.7175
vn -0.5675 -0.7154 0.4076
vn 0.6760 0.4152 -0.6088
vn -0.1434 -0.5830 -0.7997
vn 0.1607 0.5791 0.7992
vn 0.7784 0.0816 0.6225
vn -0.3549 -0.4832 -0.8003
vn -0.6478 -0.3694 0.6662
vn -0.4822 -0.7173 0.5030
vn 0.2356 -0.7988 0.5536
vn 0.8235 -0.4887 0.2880
vn 0.8908 0.1466 0.4301
vn 0.3760 0.4424 0.8142
vn 0.4763 -0.7358 -0.4814
vn 0.5124 -0.8586 0.0130
vn -0.0303 -0.8692 0.4936
vn 0.5462 0.6913 -0.4731
vn 0.3630 -0.5834 -0.7266
vn 0.8744 -0.4031 -0.2701
vn 0.9616 0.2414 -0.1308
vn 0.8833 -0.2408 -0.4021
vn 0.9223 -0.3794 0.0740
vn 0.4556 0.8818 -0.1218
vn 0.3568 0.9328 0.0499
vn 0.3557 0.9331 0.0521
vn -0.5335 -0.8286 -0.1700
vn -0.5546 -0.8166 -0.1602
vn 0.4479 0.8873 -0.1096
vn 0.1452 0.9857 0.0852
vn 0.2986 0.9518 -0.0703
vn 0.2867 0.9562 -0.0598
vn 0.1333 0.9871 0.0886
vn -0.6791 0.0746 -0.7303
vn -0.7984 0.1158 -0.5909
vn -0.7958 0.1149 -0.5945
vn 0.5490 -0.1801 0.8162
vn 0.4091 -0.1322 0.9028
vn 0.4054 -0.1309 0.9047
vn 0.2477 0.9601 -0.1295
vn 0.2487 0.9607 -0.1231
vn 0.6839 0.7201 -0.1174
vn 0.3360 0.9230 -0.1876
vn 0.3267 0.5513 -0.7676
vn 0.5430 0.7501 -0.3776
vn 0.1350 -0.0620 -0.9889
vn 0.3160 -0.1387 -0.9386
vn -0.5034 0.2069 0.8389
vn -0.5011 0.2056 0.8406
vn 0.5015 0.8611 -0.0843
vn 0.4770 0.8740 -0.0928
vn -0.9246 0.1991 0.3248
vn -0.9251 0.1992 0.3232
vn 0.9666 -0.2313 -0.1104
vn 0.9747 -0.2167 0.0540
vn 0.9746 -0.2164 0.0567
vn -0.3133 -0.9454 -0.0900
vn -0.1543 -0.9626 0.2226
vn -0.1526 -0.9637 0.2190
vn -0.0708 -0.9922 -0.1029
vn 0.7575 0.3516 -0.5501
vn 0.4425 0.3033 -0.8439
vn -0.2717 -0.9607 0.0562
vn -0.6337 -0.3895 -0.6684
vn 0.1981 -0.6017 -0.7738
vn -0.2709 -0.9605 0.0633
vn -0.2659 0.1055 0.9582
vn 0.3750 -0.6820 0.6279
vn 0.7701 0.1411 0.6221
vn -0.2752 0.1098 0.9551
vn -0.2381 -0.9712 -0.0026
vn -0.2494 -0.9684 0.0071
vn 0.3319 -0.1665 -0.9285
vn 0.3250 -0.1632 -0.9315
vn -0.9788 0.1824 0.0933
vn -0.9797 0.1819 0.0838
vn 0.6441 -0.1999 0.7384
vn 0.6419 -0.1992 0.7405
vn -0.4055 -0.9138 -0.0242
vn -0.3719 -0.9282 -0.0147
vn 0.9584 -0.2362 -0.1604
vn 0.9569 -0.2367 -0.1683
vn -0.6074 0.0524 -0.7927
vn -0.5856 -0.5961 -0.5493
vn 0.9584 0.1961 -0.2072
vn 0.6976 -0.6914 -0.1881
vn 0.4559 -0.7276 -0.5126
vn 0.6015 -0.7779 -0.1819
vn 0.9804 0.0064 -0.1968
vn -0.4339 0.5011 -0.7488
vn 0.4191 0.2899 -0.8604
vn 0.2112 -0.5841 -0.7837
vn -0.0997 0.9920 -0.0768
vn -0.0879 0.9933 -0.0744
vn -0.0669 0.9758 -0.2081
vn -0.0625 0.9778 -0.2001
vn 0.1412 -0.9654 0.2194
vn 0.1437 -0.9622 0.2312
vn 0.9999 0.0166 -0.0024
vn 0.8692 -0.1152 -0.4809
vn 0.7938 -0.1647 -0.5855
vn 0.9988 0.0491 -0.0025
vn 0.1824 0.5369 0.8237
vn 0.2980 -0.9296 0.2170
vn -0.2524 0.9503 -0.1824
vn -0.2704 0.9388 -0.2134
vn 0.1526 -0.9735 0.1706
vn 0.1616 -0.9729 0.1654
vn -0.9709 -0.2127 -0.1100
vn -0.9767 -0.1793 -0.1175
vn -0.9782 -0.1731 -0.1144
vn -0.9738 -0.2031 -0.1022
vn -0.4446 -0.1451 0.8839
vn -0.3588 -0.1237 0.9252
vn -0.0782 -0.7333 0.6754
vn 0.6352 -0.1856 0.7497
vn 0.9364 0.3367 0.0984
vn 0.9396 0.3286 0.0959
vn 0.9776 -0.1756 0.1158
vn 0.2233 -0.0757 -0.9718
vn 0.8502 -0.1856 -0.4927
vn 0.2209 -0.6897 -0.6895
vn 0.2030 -0.0876 -0.9753
vn -0.1028 -0.9936 -0.0470
vn -0.7986 0.6011 0.0321
vn -0.8064 0.5906 0.0304
vn -0.7383 0.6739 0.0274
vn -0.5143 -0.4140 0.7510
vn 0.8586 -0.5108 -0.0434
vn -0.7917 0.6101 0.0324
vn -0.7893 0.6116 0.0535
vn 0.9326 0.3472 0.0989
vn -0.9672 -0.2242 -0.1191
vn -0.9749 -0.1868 -0.1213
vn 0.9996 -0.0268 -0.0022
vn -0.4044 -0.9057 0.1271
vn 0.2864 0.9563 -0.0595
vn 0.1308 0.9867 0.0967
vn -0.8513 0.2323 0.4704
vn 0.9661 0.2577 -0.0181
vn -0.9736 -0.2277 0.0145
vn -0.9964 -0.0844 -0.0098
vn -0.9743 -0.2132 -0.0731
vn 0.9892 0.1465 0.0067
vn -0.8742 -0.1438 0.4638
vn -0.1670 -0.9859 0.0144
vn 0.4327 -0.8984 0.0746
vn 0.9732 0.2204 0.0649
vn 0.8724 -0.4870 -0.0427
vn -0.9988 -0.0407 0.0285
vn -0.0389 -0.9091 0.4149
vn 0.0731 0.8599 -0.5052
vn 0.2295 0.7261 -0.6482
vn 0.8617 -0.4907 0.1294
vn -0.9027 0.3765 0.2083
vn 0.8775 -0.4521 -0.1603
vn 0.9862 -0.0921 -0.1375
vn 0.9948 -0.0709 -0.0734
vn 0.9186 -0.3552 0.1730
vn -0.9926 0.1204 -0.0150
vn 0.7774 -0.6258 0.0635
vn -0.5013 -0.8649 -0.0247
vn -0.9917 0.1230 0.0360
vn -0.9642 -0.2405 -0.1122
vn -0.9688 -0.2271 -0.0994
vn 0.9283 0.3634 0.0794
vn 0.9326 0.3522 0.0784
vn 0.9370 0.3409 0.0761
vn 0.0738 -0.4388 0.8955
vn -0.9697 -0.2275 -0.0887
vn -0.9760 -0.1970 -0.0931
vn 0.8889 0.4537 0.0635
vt 0.366639 0.686051
vt 0.355435 0.639506
vt 0.367584 0.642191
vt 0.430643 0.686051
vt 0.054372 0.844125
vt 0.039152 0.838232
vt 0.042951 0.820126
vt 0.069057 0.833194
vt 0.483309 0.630218
vt 0.499806 0.634695
vt 0.504207 0.670765
vt 0.489787 0.671019
vt 0.734484 0.700643
vt 0.802337 0.700468
vt 0.800269 0.738846
vt 0.721943 0.733255
vt 0.544410 0.674314
vt 0.539521 0.743676
vt 0.530577 0.743504
vt 0.535286 0.673262
vt 0.817672 0.737097
vt 0.814827 0.700504
vt 0.553886 0.633464
vt 0.540700 0.630218
vt 0.520440 0.671983
vt 0.524130 0.635875
vt 0.819692 0.816733
vt 0.814848 0.790313
vt 0.838681 0.779238
vt 0.842541 0.793466
vt 0.212163 0.023076
vt 0.218204 0.027480
vt 0.208977 0.071770
vt 0.193464 0.062363
vt 0.197387 0.008987
vt 0.206122 0.018671
vt 0.177951 0.052957
vt 0.164795 0.025690
vt 0.370693 0.594878
vt 0.407504 0.561490
vt 0.461035 0.605612
vt 0.385929 0.595770
vt 0.390701 0.609248
vt 0.427396 0.610424
vt 0.413114 0.620383
vt 0.406780 0.620065
vt 0.328155 0.220946
vt 0.329064 0.234435
vt 0.285497 0.234435
vt 0.286928 0.207455
vt 0.720126 0.803864
vt 0.791015 0.801387
vt 0.796844 0.840001
vt 0.727546 0.842541
vt 0.363064 0.617192
vt 0.376756 0.618981
vt 0.445839 0.645831
vt 0.412542 0.650285
vt 0.419969 0.630355
vt 0.382953 0.635119
vt 0.060670 0.882833
vt 0.059033 0.875282
vt 0.067711 0.864010
vt 0.076914 0.886664
vt 0.386827 0.622184
vt 0.404357 0.624987
vt 0.401934 0.629910
vt 0.408590 0.635397
vt 0.410852 0.627890
vt 0.620004 0.771311
vt 0.685916 0.787140
vt 0.678330 0.820250
vt 0.610136 0.813973
vt 0.597973 0.700396
vt 0.679695 0.700550
vt 0.684488 0.739555
vt 0.611335 0.737613
vt 0.615670 0.754462
vt 0.685202 0.763348
vt 0.053172 0.875058
vt 0.047310 0.874833
vt 0.032432 0.854726
vt 0.050071 0.859368
vt 0.122495 0.862034
vt 0.095163 0.846262
vt 0.111587 0.822296
vt 0.161362 0.835510
vt 0.045980 0.889662
vt 0.031016 0.920686
vt 0.053325 0.886248
vt 0.053965 0.903675
vt 0.072610 0.796000
vt 0.092099 0.809148
vt 0.011469 0.791484
vt 0.073394 0.752854
vt 0.122727 0.908188
vt 0.161362 0.883011
vt 0.733651 0.795287
vt 0.786735 0.798524
vt 0.721035 0.768560
vt 0.740024 0.785842
vt 0.774625 0.790393
vt 0.733581 0.740034
vt 0.733752 0.769297
vt 0.816260 0.763705
vt 0.835076 0.735348
vt 0.836878 0.757293
vt 0.233419 0.151957
vt 0.217066 0.123793
vt 0.516408 0.742727
vt 0.527761 0.807657
vt 0.513613 0.807042
vt 0.508387 0.742028
vt 0.512323 0.671374
vt 0.500366 0.741329
vt 0.486347 0.740691
vt 0.483533 0.805929
vt 0.497533 0.806248
vt 0.497479 0.846709
vt 0.484713 0.846144
vt 0.511968 0.635285
vt 0.505573 0.806645
vt 0.548466 0.743848
vt 0.545688 0.808394
vt 0.536725 0.808025
vt 0.512198 0.846979
vt 0.504838 0.846844
vt 0.525273 0.847255
vt 0.541674 0.848304
vt 0.533474 0.847780
vt 0.909191 0.868625
vt 0.910661 0.887330
vt 0.899390 0.878049
vt 0.899771 0.868634
vt 0.098067 0.894141
vt 0.090964 0.912599
vt 0.009734 0.838382
vt 0.069592 0.850018
vt 0.212628 0.194420
vt 0.211695 0.194461
vt 0.194045 0.164738
vt 0.239990 0.186701
vt 0.240297 0.234435
vt 0.117378 0.794182
vt 0.218875 0.234435
vt 0.218310 0.234435
vt 0.200713 0.095629
vt 0.169849 0.068414
vt 0.134300 0.190342
vt 0.145361 0.234435
vt 0.100784 0.234435
vt 0.093989 0.205493
vt 0.067429 0.234435
vt 0.078289 0.203332
vt 0.829863 0.199833
vt 0.825687 0.220719
vt 0.786533 0.224996
vt 0.736617 0.199833
vt 0.133354 0.162736
vt 0.094899 0.183494
vt 0.125907 0.151038
vt 0.084599 0.176173
vt 0.069996 0.083769
vt 0.099286 0.111142
vt 0.053355 0.134447
vt 0.037686 0.125325
vt 0.044803 0.057124
vt 0.012929 0.107418
vt 0.198820 0.203659
vt 0.195931 0.234435
vt 0.114365 0.025882
vt 0.131029 0.055644
vt 0.105430 0.064642
vt 0.082904 0.034957
vt 0.145138 0.078978
vt 0.125165 0.089823
vt 0.188201 0.141851
vt 0.168439 0.162567
vt 0.155965 0.145545
vt 0.181182 0.200911
vt 0.182356 0.118963
vt 0.143490 0.128522
vt 0.180354 0.234435
vt 0.785540 0.299673
vt 0.761504 0.297873
vt 0.766155 0.247535
vt 0.036311 0.142161
vt 0.074299 0.168851
vt 0.050855 0.194391
vt 0.008907 0.151900
vt 0.064572 0.198861
vt 0.037091 0.234435
vt 0.052260 0.234435
vt 0.158901 0.051314
vt 0.148819 0.024809
vt 0.118460 0.139340
vt 0.108300 0.133280
vt 0.099558 0.121561
vt 0.089948 0.150166
vt 0.082839 0.136211
vt 0.125484 0.120087
vt 0.118805 0.112646
vt 0.115396 0.127542
vt 0.109701 0.119867
vt 0.749713 0.212487
vt 0.768257 0.245163
vt 0.674149 0.917647
vt 0.684447 0.890183
vt 0.685290 0.893164
vt 0.677996 0.913724
vt 0.716487 0.866443
vt 0.737514 0.909283
vt 0.704720 0.905593
vt 0.701545 0.890388
vt 0.693803 0.857333
vt 0.817217 0.277393
vt 0.792880 0.253761
vt 0.737656 0.922069
vt 0.674149 0.861022
vt 0.687005 0.896346
vt 0.682812 0.908584
vt 0.701733 0.904885
vt 0.697320 0.903239
vt 0.782011 0.226360
vt 0.699757 0.892507
vt 0.786907 0.247020
vt 0.780388 0.241410
vt 0.770973 0.240745
vt 0.771926 0.236927
vt 0.776223 0.237255
vt 0.697231 0.896300
vt 0.694031 0.898899
vt 0.688805 0.899133
vt 0.761862 0.223161
vt 0.778345 0.229255
vt 0.775063 0.231448
vt 0.768532 0.229323
vt 0.693496 0.902135
vt 0.687489 0.904199
vt 0.872850 0.845807
vt 0.864600 0.845264
vt 0.861835 0.816528
vt 0.873691 0.818883
vt 0.917358 0.869167
vt 0.918887 0.891968
vt 0.895560 0.920438
vt 0.885762 0.913681
vt 0.867462 0.865612
vt 0.875572 0.866046
vt 0.884143 0.866267
vt 0.883345 0.856842
vt 0.887992 0.861136
vt 0.887683 0.866657
vt 0.907721 0.849921
vt 0.900153 0.859218
vt 0.886053 0.857432
vt 0.878293 0.886284
vt 0.884942 0.875692
vt 0.866891 0.800618
vt 0.873544 0.810223
vt 0.870324 0.885961
vt 0.874382 0.913378
vt 0.861835 0.913126
vt 0.924375 0.903143
vt 0.904915 0.928340
vt 0.871803 0.920416
vt 0.863226 0.928962
vt 0.922249 0.836191
vt 0.915828 0.846365
vt 0.895695 0.815963
vt 0.905408 0.811397
vt 0.885958 0.820490
vt 0.891229 0.865030
vt 0.891146 0.867111
vt 0.894708 0.807968
vt 0.883381 0.813764
vt 0.883439 0.805829
vt 0.885510 0.802331
vt 0.891808 0.928689
vt 0.893412 0.940511
vt 0.876775 0.937823
vt 0.882232 0.931308
vt 0.895670 0.874498
vt 0.896523 0.868123
vt 0.884027 0.920667
vt 0.898405 0.798054
vt 0.887373 0.872177
vt 0.897376 0.861747
vt 0.888173 0.861141
vt 0.893259 0.867460
vt 0.893212 0.869247
vt 0.891063 0.869192
vt 0.877187 0.929728
vt 0.880059 0.927534
vt 0.882367 0.795681
vt 0.880848 0.803314
vt 0.893305 0.865674
vt 0.327853 0.604174
vt 0.336583 0.577446
vt 0.348064 0.582495
vt 0.339384 0.606247
vt 0.359463 0.591612
vt 0.400464 0.549458
vt 0.370127 0.537629
vt 0.383447 0.539717
vt 0.351528 0.615666
vt 0.352213 0.686051
vt 0.332346 0.686051
vt 0.330704 0.629999
vt 0.343594 0.639720
vt 0.319365 0.686051
vt 0.319123 0.630901
vt 0.742156 0.769102
vt 0.744289 0.752361
vt 0.752204 0.761473
vt 0.749300 0.768935
vt 0.782640 0.749603
vt 0.769609 0.757554
vt 0.778632 0.769998
vt 0.766174 0.769774
vt 0.746397 0.776398
vt 0.762288 0.782528
vt 0.755026 0.763354
vt 0.752487 0.769441
vt 0.764933 0.760374
vt 0.762109 0.769725
vt 0.749949 0.775529
vt 0.759197 0.779403
vt 0.367584 0.729910
vt 0.355435 0.732596
vt 0.712611 0.100706
vt 0.697926 0.089775
vt 0.724033 0.076707
vt 0.727831 0.094813
vt 0.907461 0.248959
vt 0.913938 0.208158
vt 0.928358 0.208412
vt 0.923958 0.244481
vt 0.722218 0.668118
vt 0.800584 0.661957
vt 0.968562 0.204863
vt 0.959438 0.205915
vt 0.954729 0.135673
vt 0.963673 0.135501
vt 0.817870 0.663874
vt 0.978038 0.245713
vt 0.964852 0.248959
vt 0.948282 0.243301
vt 0.944592 0.207194
vt 0.819700 0.584186
vt 0.842541 0.607637
vt 0.838631 0.621857
vt 0.814694 0.610532
vt 0.212163 0.445794
vt 0.193464 0.406506
vt 0.208977 0.397100
vt 0.218204 0.441389
vt 0.197387 0.459882
vt 0.164795 0.443180
vt 0.177951 0.415912
vt 0.206122 0.450198
vt 0.370693 0.777223
vt 0.385929 0.776332
vt 0.461035 0.766490
vt 0.407504 0.810611
vt 0.390701 0.762853
vt 0.406780 0.752036
vt 0.413114 0.751719
vt 0.427396 0.761677
vt 0.328155 0.247923
vt 0.286928 0.261414
vt 0.719926 0.597784
vt 0.727622 0.558956
vt 0.796859 0.560735
vt 0.790756 0.599207
vt 0.363064 0.754909
vt 0.376756 0.753121
vt 0.445839 0.726270
vt 0.419969 0.741747
vt 0.412542 0.721816
vt 0.382953 0.736982
vt 0.706313 0.139415
vt 0.690069 0.143245
vt 0.699272 0.120592
vt 0.707950 0.131864
vt 0.386827 0.749918
vt 0.404357 0.747114
vt 0.408590 0.736704
vt 0.401934 0.742192
vt 0.410852 0.744211
vt 0.620060 0.629533
vt 0.610449 0.586787
vt 0.678528 0.580915
vt 0.685905 0.614077
vt 0.611396 0.663226
vt 0.684574 0.661566
vt 0.615728 0.646379
vt 0.685239 0.637822
vt 0.713812 0.131639
vt 0.716912 0.115950
vt 0.734552 0.111308
vt 0.719673 0.131415
vt 0.644488 0.118615
vt 0.605621 0.092092
vt 0.655396 0.078877
vt 0.671820 0.102843
vt 0.735967 0.177268
vt 0.721004 0.146244
vt 0.713658 0.142829
vt 0.713018 0.160256
vt 0.674885 0.065729
vt 0.694374 0.052581
vt 0.693590 0.009435
vt 0.755514 0.048066
vt 0.644257 0.164769
vt 0.605621 0.139593
vt 0.786558 0.602190
vt 0.731233 0.602886
vt 0.721072 0.632951
vt 0.732549 0.632077
vt 0.733864 0.661269
vt 0.816282 0.637203
vt 0.836893 0.643824
vt 0.835155 0.665791
vt 0.217066 0.345077
vt 0.233419 0.316913
vt 0.940560 0.136450
vt 0.937765 0.072135
vt 0.951913 0.071520
vt 0.932539 0.137149
vt 0.936475 0.207803
vt 0.910499 0.138486
vt 0.924518 0.137848
vt 0.907685 0.073247
vt 0.908865 0.033032
vt 0.921631 0.032468
vt 0.921685 0.072929
vt 0.936120 0.243891
vt 0.929725 0.072532
vt 0.960877 0.071151
vt 0.969840 0.070783
vt 0.972618 0.135329
vt 0.928990 0.032333
vt 0.936350 0.032198
vt 0.949425 0.031921
vt 0.957626 0.031397
vt 0.965826 0.030873
vt 0.525936 0.084028
vt 0.517420 0.083005
vt 0.517002 0.073982
vt 0.529063 0.065517
vt 0.676019 0.169180
vt 0.668917 0.150723
vt 0.757250 0.094964
vt 0.697391 0.106600
vt 0.212628 0.274450
vt 0.194045 0.304131
vt 0.211695 0.274409
vt 0.239990 0.282169
vt 0.649606 0.050763
vt 0.200713 0.373241
vt 0.169849 0.400455
vt 0.134300 0.278528
vt 0.093989 0.263376
vt 0.078289 0.265537
vt 0.871356 0.142921
vt 0.778110 0.142921
vt 0.828026 0.117758
vt 0.867180 0.122035
vt 0.133354 0.306134
vt 0.094899 0.285375
vt 0.125907 0.317832
vt 0.084599 0.292697
vt 0.069996 0.385101
vt 0.037686 0.343545
vt 0.053355 0.334422
vt 0.099286 0.357727
vt 0.044803 0.411746
vt 0.012929 0.361452
vt 0.198820 0.265210
vt 0.114365 0.442988
vt 0.082904 0.433912
vt 0.105430 0.404227
vt 0.131029 0.413225
vt 0.125165 0.379047
vt 0.145138 0.389891
vt 0.188201 0.327019
vt 0.155965 0.323325
vt 0.168439 0.306302
vt 0.181182 0.267959
vt 0.143490 0.340347
vt 0.182356 0.349906
vt 0.827033 0.043081
vt 0.807648 0.095219
vt 0.802997 0.044880
vt 0.036311 0.326709
vt 0.050855 0.274479
vt 0.074299 0.300018
vt 0.008907 0.316970
vt 0.064572 0.270008
vt 0.158901 0.417555
vt 0.148819 0.444061
vt 0.099558 0.347308
vt 0.108300 0.335589
vt 0.118460 0.329529
vt 0.089948 0.318703
vt 0.082839 0.332658
vt 0.118805 0.356223
vt 0.125484 0.348782
vt 0.115396 0.341328
vt 0.109701 0.349002
vt 0.809750 0.097590
vt 0.791206 0.130266
vt 0.709993 0.272199
vt 0.706147 0.268275
vt 0.698853 0.247716
vt 0.699696 0.244735
vt 0.667656 0.220995
vt 0.682598 0.244939
vt 0.679423 0.260144
vt 0.646629 0.263834
vt 0.690340 0.211885
vt 0.858710 0.065361
vt 0.834373 0.088993
vt 0.646487 0.276621
vt 0.709993 0.215573
vt 0.701330 0.263136
vt 0.697138 0.250897
vt 0.682410 0.259436
vt 0.686823 0.257791
vt 0.823504 0.116393
vt 0.684386 0.247058
vt 0.828400 0.095734
vt 0.821881 0.101344
vt 0.817716 0.105499
vt 0.813419 0.105827
vt 0.812466 0.102009
vt 0.695338 0.253684
vt 0.690112 0.253450
vt 0.686912 0.250851
vt 0.803355 0.119592
vt 0.819839 0.113499
vt 0.816556 0.111306
vt 0.810025 0.113431
vt 0.696653 0.258750
vt 0.690647 0.256686
vt 0.493292 0.106431
vt 0.493649 0.134776
vt 0.482194 0.136988
vt 0.485555 0.106259
vt 0.532160 0.083535
vt 0.535302 0.060726
vt 0.505606 0.037737
vt 0.515849 0.030804
vt 0.485237 0.085971
vt 0.492688 0.086048
vt 0.501313 0.086745
vt 0.504522 0.084807
vt 0.506372 0.090137
vt 0.503099 0.094504
vt 0.517837 0.092028
vt 0.522810 0.102539
vt 0.501004 0.076061
vt 0.492084 0.065665
vt 0.492804 0.144017
vt 0.484800 0.153472
vt 0.484920 0.065682
vt 0.482360 0.036460
vt 0.494150 0.037160
vt 0.524741 0.022875
vt 0.544021 0.051155
vt 0.482194 0.020942
vt 0.491781 0.029411
vt 0.538809 0.114212
vt 0.524284 0.142432
vt 0.515358 0.137950
vt 0.529018 0.106344
vt 0.505595 0.133124
vt 0.508160 0.084114
vt 0.508609 0.086096
vt 0.514087 0.146717
vt 0.504712 0.152247
vt 0.502700 0.148565
vt 0.502906 0.140331
vt 0.512261 0.021729
vt 0.502693 0.018947
vt 0.497141 0.012032
vt 0.514926 0.009305
vt 0.513936 0.083415
vt 0.512993 0.077274
vt 0.504102 0.030106
vt 0.518918 0.156659
vt 0.502833 0.079428
vt 0.514879 0.089557
vt 0.507711 0.082132
vt 0.510322 0.081965
vt 0.510446 0.083707
vt 0.500313 0.022689
vt 0.497450 0.020235
vt 0.501385 0.159057
vt 0.500009 0.151131
vt 0.510570 0.085449
vt 0.327853 0.767928
vt 0.339384 0.765855
vt 0.348064 0.789607
vt 0.336583 0.794655
vt 0.400464 0.822643
vt 0.359463 0.780489
vt 0.383447 0.832384
vt 0.370127 0.834473
vt 0.351528 0.756436
vt 0.343594 0.732382
vt 0.330704 0.742103
vt 0.319123 0.741200
vt 0.740987 0.632196
vt 0.749425 0.632316
vt 0.752429 0.639669
vt 0.743146 0.650469
vt 0.785203 0.652694
vt 0.769822 0.643430
vt 0.781017 0.631011
vt 0.766365 0.631440
vt 0.776761 0.609153
vt 0.762623 0.618748
vt 0.746422 0.624962
vt 0.738828 0.613924
vt 0.752609 0.631752
vt 0.755232 0.637765
vt 0.765148 0.640637
vt 0.762258 0.631286
vt 0.759083 0.621690
vt 0.749987 0.625738
vt 0.791203 0.770088
vt 0.795670 0.741652
vt 0.795642 0.770117
vt 0.736374 0.743250
vt 0.762907 0.619450
vt 0.759367 0.621934
vt 0.502672 0.079477
vt 0.499527 0.078986
vt 0.683122 0.187638
vt 0.644026 0.210923
vt 0.605621 0.187094
vt 0.991225 0.242467
vt 0.977685 0.203811
vt 0.762739 0.781995
vt 0.759286 0.779077
vt 0.083861 0.931056
vt 0.122958 0.954342
vt 0.731402 0.798620
vt 0.161362 0.930513
vt 0.567073 0.636710
vt 0.553533 0.675366
vt 0.733511 0.606198
vt 0.735080 0.632113
vt 0.791274 0.630711
vt 0.795970 0.659178
vt 0.736649 0.658029
vt 0.795670 0.630582
vt 0.827317 0.700540
s 1
usemtl Skin
f 404/31/32 5/32/33 7/33/34 405/34/35
f 16/35/31 6/36/30 8/37/36 18/38/37
f 5/47/33 15/48/46 17/49/47 7/50/34
f 405/34/35 7/33/34 77/108/105 432/109/106
f 54/117/117 53/118/118 57/119/119 58/120/120
f 421/122/123 51/112/122 55/126/127 423/127/128
f 51/112/110 52/111/109 56/128/129 55/126/130
f 422/125/126 54/124/125 58/129/131 424/130/132
f 439/131/133 158/132/134 163/133/135 441/134/136
f 115/139/156 81/140/157 75/141/158
f 83/142/159 7/50/34 17/49/47 79/143/160
f 114/145/163 74/146/164 81/140/157 115/139/156
f 80/147/165 76/148/166 8/37/36
f 103/149/167 101/150/168 91/151/169 85/152/170
f 85/152/170 91/151/169 113/153/171 112/154/172
f 119/155/173 116/156/174 125/157/175 126/158/176
f 105/159/177 103/149/167 85/152/170 86/160/178
f 435/161/179 105/159/177 86/160/178 433/162/180
f 106/163/181 104/164/182 90/165/183 87/166/184
f 107/167/185 106/163/181 87/166/184 88/168/186
f 75/141/158 81/140/157 93/169/187
f 81/140/157 74/146/164 92/170/188 93/169/187
f 68/171/189 82/172/190 99/173/191 100/174/192
f 82/172/190 67/175/193 97/176/194 99/173/191
f 429/177/195 75/141/158 98/178/196 434/179/197
f 75/141/158 93/169/187 96/180/198 98/178/196
f 67/175/193 69/181/199 95/182/200 97/176/194
f 93/169/187 92/170/201 94/183/202 96/180/198
f 100/174/192 99/173/191 106/163/181 107/167/185
f 99/173/191 97/176/194 104/164/182 106/163/181
f 434/179/197 98/178/196 105/159/177 435/161/179
f 98/178/196 96/180/198 103/149/167 105/159/177
f 118/184/203 119/185/173 126/158/176 127/186/204
f 96/180/198 94/183/202 101/150/168 103/149/167
f 87/166/184 90/165/183 108/187/205
f 108/187/205 90/165/183 89/188/206 110/189/207
f 108/187/205 109/190/208 88/168/186 87/166/184
f 436/191/209 433/162/180 86/160/178 112/154/172
f 110/189/207 111/192/210 109/190/208 108/187/205
f 112/154/172 86/160/178 85/152/170
f 436/191/209 437/193/211 111/192/210 110/189/207
f 76/148/166 67/175/193 82/172/190 84/194/212
f 79/143/160 114/145/163 115/139/156 83/142/159
f 83/142/159 115/139/156 75/141/158 77/108/105
f 76/148/166 80/147/165 69/181/199 67/175/193
f 84/194/212 82/172/190 68/171/189 78/195/213
f 432/109/106 429/177/195 69/181/199 80/147/165
f 104/164/182 102/196/214 117/197/215 116/198/174
f 102/196/214 89/188/206 118/199/203 117/197/215
f 89/188/206 90/165/183 119/200/173 118/199/203
f 90/165/183 104/164/182 116/198/174 119/200/173
f 97/176/194 95/182/200 121/201/216 120/202/217
f 95/182/200 102/196/214 122/203/218 121/201/216
f 102/196/214 104/164/182 123/204/219 122/203/218
f 104/164/182 97/176/194 120/202/217 123/204/219
f 127/186/204 126/158/176 134/205/220 135/206/221
f 130/207/222 129/208/223 137/209/224 138/210/225
f 121/211/226 122/212/226 131/213/227 128/214/228
f 120/215/217 121/211/216 128/214/228 129/208/223
f 117/216/215 118/184/203 127/186/204 124/217/229
f 122/212/218 123/218/219 130/207/222 131/213/227
f 116/156/174 117/216/215 124/217/229 125/157/175
f 123/219/219 120/215/217 129/208/223 130/207/222
f 138/210/225 137/209/224 145/220/230 146/221/231
f 139/222/232 138/210/225 146/221/231 147/223/233
f 126/158/176 125/157/175 133/224/234 134/205/220
f 128/214/228 131/213/227 139/222/232 136/225/235
f 129/208/223 128/214/228 136/225/235 137/209/224
f 124/217/229 127/186/204 135/206/221 132/226/236
f 125/157/175 124/217/229 132/226/236 133/224/234
f 131/213/227 130/207/222 138/210/225 139/222/232
f 140/227/237 143/228/238 151/229/239 148/230/240
f 145/220/230 144/231/241 152/232/242 153/233/243
f 135/206/221 134/205/220 142/234/244 143/228/238
f 134/205/220 133/224/234 141/235/245 142/234/244
f 136/225/235 139/222/232 147/223/233 144/231/241
f 137/209/224 136/225/235 144/231/241 145/220/230
f 132/226/236 135/206/221 143/228/238 140/227/237
f 133/224/234 132/226/236 140/227/237 141/235/245
f 149/236/246 148/230/240 151/229/239 150/237/247
f 153/233/243 152/232/242 155/238/248 154/239/249
f 141/235/245 140/227/237 148/230/240 149/236/246
f 147/223/233 146/221/231 154/239/249 155/238/248
f 146/221/231 145/220/230 153/233/243 154/239/249
f 143/228/238 142/234/244 150/237/247 151/229/239
f 142/234/244 141/235/245 149/236/246 150/237/247
f 144/231/241 147/223/233 155/238/248 152/232/242
f 8/37/36 84/194/212 78/195/213 18/38/37
f 84/194/212 8/37/36 76/148/166
f 7/50/34 83/142/159 77/108/105
f 156/240/250 58/241/131 168/242/251 170/243/252
f 423/244/128 55/245/127 158/132/134 439/131/133
f 158/132/134 55/245/127 164/246/253 166/247/254
f 424/248/132 58/241/131 156/240/250 438/249/255
f 440/250/256 160/251/257 172/252/258 442/253/259
f 156/240/260 157/254/260 161/255/261 160/256/262
f 158/132/263 159/257/263 162/258/264 163/133/265
f 438/249/255 156/240/250 160/251/257 440/250/256
f 170/243/252 168/242/251 180/259/266 182/260/267
f 56/261/268 159/257/269 167/262/270 165/263/271
f 159/257/269 158/132/272 166/247/273 167/262/270
f 55/245/130 56/264/129 165/265/274 164/246/275
f 165/263/271 167/262/270 179/266/276 177/267/277
f 58/268/120 57/269/119 169/270/278 168/271/279
f 157/254/280 156/240/280 170/243/281 171/272/282
f 57/269/283 157/254/284 171/272/285 169/270/286
f 442/253/259 172/252/258 184/273/287 444/274/288
f 181/275/289 183/276/290 195/277/291 193/278/292
f 176/279/293 177/280/294 189/281/295 188/282/296
f 164/246/275 165/265/274 177/280/294 176/279/293
f 169/270/286 171/272/285 183/276/290 181/275/289
f 441/134/136 163/133/135 175/283/297 443/284/298
f 167/262/270 166/247/273 178/285/299 179/266/300
f 168/271/279 169/270/278 181/275/301 180/286/302
f 163/133/265 162/258/264 174/287/303 175/283/304
f 166/247/254 164/246/253 176/279/305 178/285/306
f 171/272/282 170/243/281 182/260/307 183/276/308
f 160/256/262 161/255/261 173/288/309 172/289/310
f 444/274/288 445/290/311 187/291/312 186/292/313
f 188/282/296 189/281/295 191/293/314 190/294/315
f 192/295/316 193/278/292 195/277/291 194/296/317
f 180/286/302 181/275/301 193/278/292 192/295/316
f 179/266/300 178/285/299 190/294/315 191/293/314
f 443/284/298 175/283/297 187/291/312 445/290/311
f 183/276/308 182/260/307 194/296/317 195/277/291
f 178/285/306 176/279/305 188/282/296 190/294/315
f 175/283/304 174/287/303 186/292/313 187/291/312
f 182/260/267 180/259/266 192/295/316 194/296/317
f 172/289/310 173/288/309 185/297/318 184/273/287
f 177/267/277 179/266/276 191/293/314 189/281/295
f 457/354/383 458/355/384 222/356/385 220/357/386
f 16/358/31 18/359/37 223/360/387 221/361/381
f 220/370/386 222/371/385 17/49/47 15/48/46
f 458/355/384 484/425/439 276/426/440 222/356/385
f 255/434/451 259/435/452 258/436/453 254/437/454
f 473/439/456 475/443/461 256/444/462 252/428/457
f 252/428/442 256/444/463 257/445/464 253/429/443
f 474/440/458 476/446/465 259/447/466 255/441/459
f 490/448/467 492/449/468 349/450/469 344/451/470
f 301/456/488 274/457/489 278/458/490
f 280/459/491 79/143/160 17/49/47 222/371/385
f 114/145/163 301/456/488 278/458/490 74/146/164
f 277/461/493 223/360/387 275/462/494
f 294/463/495 282/464/496 91/151/169 101/150/168
f 282/464/496 300/465/497 113/153/171 91/151/169
f 305/466/498 312/467/499 311/468/500 302/469/501
f 296/470/502 283/471/503 282/464/496 294/463/495
f 487/472/504 485/473/505 283/471/503 296/470/502
f 297/474/506 284/475/507 286/476/508 295/477/509
f 107/478/185 88/479/186 284/475/507 297/474/506
f 274/457/489 287/480/510 278/458/490
f 278/458/490 287/480/510 92/170/188 74/146/164
f 68/481/189 100/482/192 292/483/511 279/484/512
f 279/484/512 292/483/511 290/485/513 268/486/514
f 481/487/515 486/488/516 291/489/517 274/457/489
f 274/457/489 291/489/517 289/490/518 287/480/510
f 268/486/514 290/485/513 288/491/519 269/492/520
f 287/480/510 289/490/518 94/183/202 92/170/201
f 100/482/192 107/478/185 297/474/506 292/483/511
f 292/483/511 297/474/506 295/477/509 290/485/513
f 486/488/516 487/472/504 296/470/502 291/489/517
f 291/489/517 296/470/502 294/463/495 289/490/518
f 304/493/521 313/494/522 312/467/499 305/495/498
f 289/490/518 294/463/495 101/150/168 94/183/202
f 284/475/507 298/496/523 286/476/508
f 298/496/523 299/497/524 285/498/525 286/476/508
f 298/496/523 284/475/507 88/479/186 109/499/208
f 488/500/526 300/465/497 283/471/503 485/473/505
f 299/497/524 298/496/523 109/499/208 111/192/210
f 300/465/497 282/464/496 283/471/503
f 488/500/526 299/497/524 111/192/210 437/193/211
f 275/462/494 281/501/527 279/484/512 268/486/514
f 79/143/160 280/459/491 301/456/488 114/145/163
f 280/459/491 276/426/440 274/457/489 301/456/488
f 275/462/494 268/486/514 269/492/520 277/461/493
f 281/501/527 78/502/213 68/481/189 279/484/512
f 484/425/439 277/461/493 269/492/520 481/487/515
f 295/477/509 302/503/501 303/504/528 293/505/529
f 293/505/529 303/504/528 304/506/521 285/498/525
f 285/498/525 304/506/521 305/507/498 286/476/508
f 286/476/508 305/507/498 302/503/501 295/477/509
f 290/485/513 306/508/530 307/509/531 288/491/519
f 288/491/519 307/509/531 308/510/532 293/505/529
f 293/505/529 308/510/532 309/511/533 295/477/509
f 295/477/509 309/511/533 306/508/530 290/485/513
f 313/494/522 321/512/534 320/513/535 312/467/499
f 316/514/536 324/515/537 323/516/538 315/517/539
f 307/518/540 314/519/541 317/520/542 308/521/540
f 306/522/530 315/517/539 314/519/541 307/518/531
f 303/523/528 310/524/543 313/494/522 304/493/521
f 308/521/532 317/520/542 316/514/536 309/525/533
f 302/469/501 311/468/500 310/524/543 303/523/528
f 309/526/533 316/514/536 315/517/539 306/522/530
f 324/515/537 332/527/544 331/528/545 323/516/538
f 325/529/546 333/530/547 332/527/544 324/515/537
f 312/467/499 320/513/535 319/531/548 311/468/500
f 314/519/541 322/532/549 325/529/546 317/520/542
f 315/517/539 323/516/538 322/532/549 314/519/541
f 310/524/543 318/533/550 321/512/534 313/494/522
f 311/468/500 319/531/548 318/533/550 310/524/543
f 317/520/542 325/529/546 324/515/537 316/514/536
f 326/534/551 334/535/552 337/536/553 329/537/554
f 331/528/545 339/538/555 338/539/556 330/540/557
f 321/512/534 329/537/554 328/541/558 320/513/535
f 320/513/535 328/541/558 327/542/559 319/531/548
f 322/532/549 330/540/557 333/530/547 325/529/546
f 323/516/538 331/528/545 330/540/557 322/532/549
f 318/533/550 326/534/551 329/537/554 321/512/534
f 319/531/548 327/542/559 326/534/551 318/533/550
f 335/543/560 336/544/561 337/536/553 334/535/552
f 339/538/555 340/545/562 341/546/563 338/539/556
f 327/542/559 335/543/560 334/535/552 326/534/551
f 333/530/547 341/546/563 340/545/562 332/527/544
f 332/527/544 340/545/562 339/538/555 331/528/545
f 329/537/554 337/536/553 336/544/561 328/541/558
f 328/541/558 336/544/561 335/543/560 327/542/559
f 330/540/557 338/539/556 341/546/563 333/530/547
f 223/360/387 18/359/37 78/502/213 281/501/527
f 281/501/527 275/462/494 223/360/387
f 222/371/385 276/426/440 280/459/491
f 342/547/564 356/548/565 354/549/566 259/550/466
f 475/551/461 490/448/467 344/451/470 256/552/462
f 344/451/470 352/553/567 350/554/568 256/552/462
f 476/555/465 489/556/569 342/547/564 259/550/466
f 491/557/570 493/558/571 358/559/572 346/560/573
f 342/547/574 346/560/575 347/561/576 343/562/574
f 344/451/577 349/450/578 348/563/579 345/564/577
f 489/556/569 491/557/570 346/560/573 342/547/564
f 356/548/565 368/565/580 366/566/581 354/549/566
f 257/567/582 351/568/583 353/569/584 345/564/585
f 345/564/585 353/569/584 352/553/586 344/451/587
f 256/552/463 350/554/588 351/570/589 257/571/464
f 351/568/583 363/572/590 365/573/591 353/569/584
f 259/574/452 354/575/592 355/576/593 258/577/453
f 343/562/594 357/578/595 356/548/596 342/547/594
f 258/577/597 355/576/598 357/578/599 343/562/600
f 493/558/571 495/579/601 370/580/602 358/559/572
f 367/581/603 379/582/604 381/583/605 369/584/606
f 362/585/607 374/586/608 375/587/609 363/588/610
f 350/554/588 362/585/607 363/588/610 351/570/589
f 355/576/598 367/581/603 369/584/606 357/578/599
f 492/449/468 494/589/611 361/590/612 349/450/469
f 353/569/584 365/573/613 364/591/614 352/553/586
f 354/575/592 366/592/615 367/581/616 355/576/593
f 349/450/578 361/590/617 360/593/618 348/563/579
f 352/553/567 364/591/619 362/585/620 350/554/568
f 357/578/595 369/584/621 368/565/622 356/548/596
f 346/560/575 358/559/623 359/594/624 347/561/576
f 495/579/601 372/595/625 373/596/626 496/597/627
f 374/586/608 376/598/628 377/599/629 375/587/609
f 378/600/630 380/601/631 381/583/605 379/582/604
f 366/592/615 378/600/630 379/582/604 367/581/616
f 365/573/613 377/599/629 376/598/628 364/591/614
f 494/589/611 496/597/627 373/596/626 361/590/612
f 369/584/621 381/583/605 380/601/631 368/565/622
f 364/591/619 376/598/628 374/586/608 362/585/620
f 361/590/617 373/596/626 372/595/625 360/593/618
f 368/565/580 380/601/631 378/600/630 366/566/581
f 358/559/623 370/580/602 371/602/632 359/594/624
f 363/572/590 375/587/609 377/599/629 365/573/591
f 359/594/624 371/602/632 496/597/627 494/589/611
f 370/580/602 495/579/601 496/597/627 371/602/632
f 347/561/676 359/594/624 494/589/611 492/449/468
f 360/639/677 372/595/625 495/579/601 493/558/571
f 345/564/585 348/640/678 491/557/570 489/556/569
f 348/640/678 360/639/677 493/558/571 491/557/570
f 257/567/582 345/564/585 489/556/569 476/555/465
f 258/577/597 343/562/600 490/448/467 475/551/461
f 276/426/440 484/425/439 481/487/515 274/457/489
f 300/465/497 488/500/526 437/193/211 113/153/171
f 299/497/524 488/500/526 485/473/505 285/498/525
f 288/491/519 293/505/529 487/472/504 486/488/516
f 269/492/520 288/491/519 486/488/516 481/487/515
f 293/505/529 285/498/525 485/473/505 487/472/504
f 343/562/600 347/561/676 492/449/468 490/448/467
f 253/429/680 257/445/582 476/446/465 474/440/458
f 254/437/681 258/436/597 475/443/461 473/439/456
f 223/360/387 277/461/493 484/425/439 458/355/384
f 221/361/381 223/360/387 458/355/384 457/354/383
f 173/288/309 443/284/298 445/290/311 185/297/318
f 184/273/287 185/297/318 445/290/311 444/274/288
f 161/255/691 441/134/136 443/284/298 173/288/309
f 174/287/692 442/253/259 444/274/288 186/292/313
f 159/257/269 438/249/255 440/250/256 162/258/693
f 162/258/693 440/250/256 442/253/259 174/287/692
f 56/261/268 424/248/132 438/249/255 159/257/269
f 57/269/283 423/244/128 439/131/133 157/254/284
f 77/108/105 75/141/158 429/177/195 432/109/106
f 112/154/172 113/153/171 437/193/211 436/191/209
f 110/189/207 89/188/206 433/162/180 436/191/209
f 95/182/200 434/179/197 435/161/179 102/196/214
f 69/181/199 429/177/195 434/179/197 95/182/200
f 102/196/214 435/161/179 433/162/180 89/188/206
f 157/254/284 439/131/133 441/134/136 161/255/691
f 52/111/695 422/125/126 424/130/132 56/128/268
f 53/118/696 421/122/123 423/127/128 57/119/283
f 8/37/36 405/34/35 432/109/106 80/147/165
f 6/36/30 404/31/32 405/34/35 8/37/36
usemtl Shirt
f 44/13/13 12/14/14 3/15/15 41/16/16
f 515/21/21 3/15/15 12/14/14 518/22/22
f 517/27/28 516/28/29 6/29/30 16/30/31
f 42/51/48 4/52/49 14/53/50 43/54/51
f 196/70/69 30/71/70 31/72/71 197/73/72
f 198/74/73 32/75/74 29/76/75 199/77/76
f 446/78/77 412/79/78 30/71/70 196/70/69
f 30/71/70 42/51/48 43/54/51 31/72/71
f 46/98/97 399/99/98 4/52/49 42/51/48
f 412/79/78 417/100/99 42/51/48 30/71/70
f 399/99/98 46/98/97 400/101/100 398/102/101
f 417/100/99 41/16/16 45/103/102 418/104/103
f 522/105/104 515/21/21 5/106/33 404/107/32
f 32/75/74 44/13/13 41/16/16 29/76/75
f 450/313/346 401/314/347 210/315/348 451/316/349
f 397/317/350 211/318/351 210/315/352 401/314/353
f 449/319/354 452/320/355 211/318/351 397/317/356
f 398/102/101 400/101/100 208/321/357 209/322/358
f 451/316/359 210/315/352 213/323/27 453/324/121
f 211/318/351 215/325/24 213/323/27 210/315/352
f 452/320/355 454/326/23 215/325/24 211/318/351
f 209/322/358 208/321/357 212/327/10 214/328/9
f 44/13/13 244/339/369 218/340/370 12/14/14
f 519/345/375 518/22/22 12/14/14 218/340/370
f 517/350/28 16/351/31 221/352/381 520/353/382
f 245/372/394 43/373/51 14/374/50 219/375/395
f 382/391/412 197/392/72 31/393/71 235/394/413
f 198/74/73 383/395/414 234/396/415 32/75/74
f 497/397/416 382/391/412 235/394/413 464/398/417
f 235/394/413 31/393/71 43/373/51 245/372/394
f 219/375/395 512/417/433 247/418/434 245/372/394
f 464/398/417 235/394/413 245/372/394 469/419/435
f 469/419/435 470/420/436 246/421/437 244/339/369
f 521/422/438 457/423/383 220/424/386 519/345/375
f 32/75/74 234/396/415 244/339/369 44/13/13
f 510/615/649 500/616/650 390/617/651 507/618/652
f 505/619/653 507/618/654 390/617/655 391/620/656
f 509/621/657 505/619/658 391/620/656 501/622/659
f 508/623/660 389/624/661 388/625/662 506/626/663
f 500/616/664 502/627/455 393/628/378 390/617/655
f 391/620/656 390/617/655 393/628/378 395/629/377
f 501/622/659 391/620/656 395/629/377 503/630/376
f 389/624/661 394/631/365 392/632/368 388/625/662
f 504/633/665 449/319/354 397/317/356 396/634/666
f 403/635/667 504/633/665 396/634/666 3/15/15
f 396/634/668 397/317/350 401/314/353 45/636/102
f 3/15/15 396/634/668 45/103/102 41/16/16
f 418/104/103 45/636/102 401/314/347 450/313/346
f 46/98/97 418/104/103 450/313/346 400/101/669
f 4/52/49 399/99/670 504/633/665 403/635/667
f 399/99/670 398/102/671 449/319/354 504/633/665
f 389/637/661 501/622/659 503/630/376 394/638/365
f 388/625/662 392/632/368 502/627/455 500/616/664
f 508/623/672 509/621/657 501/622/659 389/637/661
f 506/626/673 388/625/674 500/616/650 510/615/649
f 520/353/382 221/352/381 457/423/383 521/422/438
f 245/372/394 247/418/434 470/420/436 469/419/435
f 234/396/415 464/398/417 469/419/435 244/339/369
f 383/395/684 497/397/416 464/398/417 234/396/415
f 209/646/358 214/647/9 454/326/23 452/320/355
f 208/321/357 451/316/359 453/324/121 212/327/10
f 398/102/671 209/646/358 452/320/355 449/319/354
f 400/101/669 450/313/346 451/316/349 208/321/689
f 516/28/29 522/105/104 404/107/32 6/29/30
f 42/51/48 417/100/99 418/104/103 46/650/97
f 29/76/75 41/16/16 417/100/99 412/79/78
f 199/77/700 29/76/75 412/79/78 446/78/77
f 247/654/704 506/626/673 510/615/649 513/655/705
f 512/417/706 514/656/707 509/621/657 508/623/672
f 512/417/433 508/623/660 506/626/663 247/654/434
f 514/656/707 511/657/708 505/619/658 509/621/657
f 511/657/709 246/658/437 507/618/654 505/619/653
f 513/655/705 510/615/649 507/618/652 246/658/710
f 470/420/711 513/655/705 246/421/710
f 456/659/712 218/340/370 511/657/708 514/656/707
f 219/375/395 456/659/712 514/656/707 512/417/706
f 247/654/704 513/655/705 470/420/711
f 246/658/437 511/657/709 218/340/370 244/339/369
f 4/52/49 403/635/667 522/105/104 516/28/29
f 219/375/395 520/353/382 521/422/438 456/659/712
f 456/659/712 521/422/438 519/345/375 218/340/370
f 14/374/50 517/350/28 520/353/382 219/375/395
f 220/424/386 15/660/46 518/22/22 519/345/375
f 403/635/667 3/15/15 515/21/21 522/105/104
f 14/53/50 4/52/49 516/28/29 517/27/28
f 5/106/33 515/21/21 518/22/22 15/660/46
usemtl Sleeves_+_Belt
f 426/5/5 61/6/6 64/7/7 428/8/8
f 214/9/9 212/10/10 49/11/11 50/12/12
f 420/17/17 430/18/18 70/19/19 48/20/20
f 454/23/23 420/17/17 48/20/20 215/24/24
f 215/24/24 48/20/25 47/25/26 213/26/27
f 28/61/59 27/62/60 35/63/61 36/64/62
f 410/80/64 26/81/45 34/82/79 413/83/80
f 65/84/81 63/85/82 39/86/83 40/87/84
f 26/81/45 25/88/44 33/89/85 34/82/79
f 411/90/86 28/61/59 36/64/62 414/91/87
f 428/8/88 64/7/89 38/92/90 415/93/91
f 64/7/89 66/94/92 37/95/93 38/92/90
f 427/96/94 65/84/95 40/87/95 416/97/96
f 71/110/107 70/19/108 52/111/109 51/112/110
f 431/113/111 419/114/112 47/25/113 71/110/114
f 49/11/11 72/115/115 73/116/116 50/12/12
f 73/116/116 72/115/115 53/118/118 54/117/117
f 453/121/121 213/26/27 47/25/113 419/114/112
f 431/113/111 71/110/114 51/112/122 421/122/123
f 430/18/18 73/123/124 54/124/125 422/125/126
f 414/91/137 36/64/138 60/135/138 425/136/139
f 34/82/140 33/89/141 62/137/141 61/6/142
f 36/64/143 35/63/144 59/138/145 60/135/143
f 413/83/146 34/82/140 61/6/142 426/5/147
f 425/136/148 60/135/149 65/84/150 427/96/151
f 61/6/6 62/137/152 66/94/153 64/7/7
f 48/20/25 70/19/108 71/110/107 47/25/26
f 60/135/149 59/138/154 63/85/155 65/84/150
f 416/144/161 415/93/162 38/92/90 37/95/93
f 446/298/319 196/299/320 200/300/321 448/301/322
f 196/299/320 197/304/327 202/305/328 200/300/321
f 447/306/329 448/301/330 200/300/331 201/302/332
f 205/307/333 204/308/334 207/309/335 206/310/335
f 201/302/332 200/300/331 202/305/336 203/303/337
f 198/311/340 199/312/341 207/309/342 204/308/343
f 478/331/362 480/332/362 265/333/363 262/334/364
f 394/335/365 251/336/366 250/337/367 392/338/368
f 472/341/371 249/342/372 270/343/373 482/344/374
f 503/346/376 395/347/377 249/342/372 472/341/371
f 395/347/377 393/348/378 248/349/379 249/342/380
f 233/382/402 239/383/403 238/384/404 232/385/405
f 462/399/407 465/400/418 237/401/419 231/402/391
f 266/403/420 243/404/421 242/405/422 264/406/423
f 231/402/391 237/401/419 236/407/424 230/408/392
f 463/409/425 466/410/426 239/383/403 233/382/402
f 480/332/427 467/411/427 241/412/428 265/333/429
f 265/333/429 241/412/428 240/413/430 267/414/431
f 479/415/432 468/416/432 243/404/432 266/403/432
f 271/427/441 252/428/442 253/429/443 270/343/444
f 483/430/445 271/427/446 248/349/447 471/431/448
f 250/337/367 251/336/366 273/432/449 272/433/450
f 273/432/449 255/434/451 254/437/454 272/433/450
f 502/438/455 471/431/448 248/349/447 393/348/378
f 483/430/445 473/439/456 252/428/457 271/427/446
f 482/344/374 474/440/458 255/441/459 273/442/460
f 466/410/471 477/452/472 261/453/473 239/383/473
f 237/401/474 262/334/475 263/454/476 236/407/476
f 239/383/477 261/453/477 260/455/478 238/384/479
f 465/400/480 478/331/480 262/334/475 237/401/474
f 477/452/481 479/415/481 266/403/482 261/453/483
f 262/334/364 265/333/363 267/414/484 263/454/485
f 249/342/380 248/349/379 271/427/441 270/343/444
f 261/453/483 266/403/482 264/406/486 260/455/487
f 468/460/492 240/413/430 241/412/428 467/411/492
f 497/603/633 499/604/634 384/605/635 382/606/636
f 382/606/636 384/605/635 202/609/328 197/610/327
f 498/611/639 385/608/640 384/605/641 499/604/642
f 205/307/333 386/612/643 387/613/643 204/308/334
f 385/608/640 203/607/337 202/609/336 384/605/641
f 198/311/340 204/308/343 387/613/645 383/614/646
f 386/612/675 498/611/639 499/604/642 387/613/675
f 383/614/646 387/613/645 499/604/634 497/603/633
f 243/404/421 468/460/492 467/411/492 242/405/422
f 263/641/485 267/642/484 479/415/481 477/452/481
f 238/384/479 260/455/478 478/331/480 465/400/480
f 236/407/679 263/641/679 477/452/472 466/410/471
f 270/343/373 253/429/680 474/440/458 482/344/374
f 272/433/682 254/437/681 473/439/456 483/430/445
f 392/338/368 250/337/683 471/431/448 502/438/455
f 272/433/682 483/430/445 471/431/448 250/337/683
f 267/642/432 240/643/432 468/416/432 479/415/432
f 264/406/423 242/405/422 467/411/427 480/332/427
f 230/408/392 236/407/424 466/410/426 463/409/425
f 232/385/405 238/384/404 465/400/418 462/399/407
f 394/644/365 503/346/376 472/341/371 251/645/688
f 251/645/688 472/341/371 482/344/374 273/442/460
f 260/455/487 264/406/486 480/332/362 478/331/362
f 206/310/690 207/309/690 448/301/330 447/306/329
f 199/312/341 446/298/319 448/301/322 207/309/342
f 40/87/84 39/86/83 415/93/162 416/144/161
f 62/648/152 425/136/148 427/96/151 66/649/153
f 35/63/144 413/83/146 426/5/147 59/138/145
f 33/89/694 414/91/137 425/136/139 62/648/694
f 70/19/19 430/18/18 422/125/126 52/111/695
f 72/115/697 431/113/111 421/122/123 53/118/696
f 212/10/10 453/121/121 419/114/112 49/11/698
f 72/115/697 49/11/698 419/114/112 431/113/111
f 66/649/699 427/96/94 416/97/96 37/651/699
f 63/85/82 428/8/88 415/93/91 39/86/83
f 25/88/44 411/90/86 414/91/87 33/89/85
f 27/62/60 410/80/64 413/83/80 35/63/61
f 214/652/9 50/653/703 420/17/17 454/23/23
f 50/653/703 73/123/124 430/18/18 420/17/17
f 59/138/154 426/5/5 428/8/8 63/85/155
usemtl Pants
f 13/1/1 2/2/2 10/3/3 20/4/4
f 1/39/38 11/40/39 19/41/40 9/42/41
f 21/43/42 22/44/43 25/45/44 26/46/45
f 402/55/52 1/39/53 9/42/41 406/56/54
f 9/42/41 19/41/40 22/44/43 21/43/42
f 407/57/55 20/4/4 23/58/56 409/59/57
f 20/4/4 10/3/3 24/60/58 23/58/56
f 406/56/54 9/42/41 21/43/42 408/65/63
f 408/65/63 21/43/42 26/46/45 410/66/64
f 23/58/56 24/60/58 27/67/65 28/68/65
f 409/59/66 23/58/67 28/68/67 411/69/68
f 11/40/323 1/39/324 201/302/325 203/303/326
f 2/2/2 13/1/1 205/307/338 206/310/339
f 402/55/344 2/2/2 206/310/339 447/306/345
f 13/1/1 20/4/4 225/329/360 217/330/361
f 216/362/388 224/363/389 19/364/40 11/365/39
f 226/366/390 231/367/391 230/368/392 227/369/393
f 455/376/396 459/377/397 224/363/389 216/362/398
f 224/363/389 226/366/390 227/369/393 19/364/40
f 407/378/55 461/379/399 228/380/400 20/4/4
f 20/4/4 228/380/400 229/381/401 225/329/360
f 459/377/397 460/386/406 226/366/390 224/363/389
f 460/386/406 462/387/407 231/367/391 226/366/390
f 228/380/400 233/388/408 232/389/408 229/381/401
f 461/379/409 463/390/410 233/388/411 228/380/411
f 11/365/323 203/607/326 385/608/637 216/362/638
f 217/330/361 386/612/644 205/307/338 13/1/1
f 455/376/647 498/611/648 386/612/644 217/330/361
f 216/362/638 385/608/637 498/611/648 455/376/647
f 227/369/685 230/368/685 463/390/410 461/379/409
f 229/381/401 232/389/405 462/387/407 460/386/406
f 225/329/360 229/381/401 460/386/406 459/377/397
f 19/364/686 227/369/687 461/379/399 407/378/55
f 217/330/361 225/329/360 459/377/397 455/376/396
f 1/39/324 402/55/344 447/306/345 201/302/325
f 22/44/701 409/59/66 411/69/68 25/45/701
f 24/60/58 408/65/63 410/66/64 27/67/60
f 10/3/3 406/56/54 408/65/63 24/60/58
f 19/41/686 407/57/55 409/59/57 22/44/702
f 2/2/2 402/55/52 406/56/54 10/3/3
o Backpack
v -1.112648 -1.877914 -0.775918
v -1.106340 -1.288517 -0.770841
v -1.110933 -1.874702 -1.171078
v -1.104610 -1.285218 -1.165980
v 1.118769 -1.902904 -0.770033
v 1.125081 -1.313490 -0.764962
v 1.120202 -1.899694 -1.165081
v 1.126425 -1.310376 -1.159959
v -1.111267 -2.069062 -1.304341
v -1.115161 -2.074498 -0.646584
v -1.104721 -1.094056 -0.638131
v -1.101200 -1.088840 -1.295324
v 1.127839 -1.115654 -1.288329
v 1.118416 -2.094215 -1.297759
v 1.116201 -2.099476 -0.640678
v 1.126700 -1.119046 -0.632244
v -1.355871 -1.872056 -1.172099
v -1.358482 -1.875154 -0.776572
v -1.352123 -1.285685 -0.771543
v -1.349656 -1.282114 -1.166969
v 1.372025 -1.313447 -1.159168
v 1.366033 -1.902448 -1.164433
v 1.364601 -1.905658 -0.769384
v 1.370771 -1.316633 -0.764648
vn -0.0029 -0.0085 1.0000
vn 0.0032 0.0094 -1.0000
vn 0.0042 0.0086 -1.0000
vn -0.0027 -0.0086 1.0000
vn -0.0112 -0.9999 -0.0082
vn 0.0116 0.9999 0.0066
vn -1.0000 0.0073 -0.0053
vn -0.9999 0.0107 -0.0033
vn -0.9999 0.0129 -0.0049
vn -0.9999 0.0105 -0.0116
vn 0.9999 -0.0100 -0.0014
vn 0.9999 -0.0112 0.0034
vn 1.0000 -0.0078 0.0023
vn 0.9999 -0.0107 0.0035
vn -0.9999 0.0107 -0.0063
vn 0.9999 -0.0104 0.0033
vn 0.0126 0.9999 0.0080
vn 0.0030 0.0088 -1.0000
vn 0.0121 0.9999 0.0088
vn -0.0110 -0.9999 -0.0080
vn -0.0021 -0.0083 1.0000
vt 0.557672 0.596368
vt 0.504637 0.595708
vt 0.506561 0.572450
vt 0.556591 0.574352
vt 0.576804 0.503265
vt 0.486567 0.503023
vt 0.483670 0.297128
vt 0.574617 0.300450
vt 0.504073 0.515171
vt 0.559038 0.515222
vt 0.561381 0.537326
vt 0.502184 0.538348
vt 0.331383 0.302221
vt 0.422346 0.298377
vt 0.427017 0.504370
vt 0.337704 0.507312
vt 0.277409 0.509547
vt 0.270913 0.304637
vt 0.575752 0.578975
vt 0.587592 0.545842
vt 0.608566 0.543213
vt 0.586976 0.597903
vt 0.575485 0.608566
vt 0.486964 0.607611
vt 0.474798 0.547507
vt 0.489346 0.581158
vt 0.479690 0.601025
vt 0.453306 0.545898
vt 0.502381 0.284558
vt 0.557413 0.288561
vt 0.589099 0.270341
vt 0.587120 0.233928
vt 0.603274 0.218959
vt 0.608566 0.279635
vt 0.503516 0.212689
vt 0.481212 0.239808
vt 0.460812 0.234683
vt 0.499779 0.190921
vt 0.576015 0.215300
vt 0.525643 0.200219
vt 0.512474 0.183647
vt 0.596579 0.208934
vt 0.561381 0.268576
vt 0.503944 0.258218
vt 0.519990 0.222315
vt 0.567580 0.236215
s 0
usemtl Backpack
f 523/661/713 524/662/713 541/663/713 540/664/713
f 531/665/714 534/666/714 535/667/714 536/668/714
f 526/669/715 525/670/715 539/671/715 542/672/715
f 537/673/716 538/674/716 533/675/716 532/676/716
f 531/677/717 536/678/717 537/673/717 532/676/717
f 535/667/718 534/666/718 533/675/718 538/674/718
f 523/679/719 525/680/719 531/681/719 532/682/719
f 524/662/720 523/661/720 532/683/720 533/684/720
f 526/685/721 524/686/721 533/687/721 534/688/721
f 525/670/722 526/669/722 534/666/722 531/665/722
f 530/689/723 529/690/723 536/668/723 535/667/723
f 529/691/724 527/692/724 537/693/724 536/694/724
f 528/695/725 530/696/725 535/697/725 538/698/725
f 527/699/726 528/700/726 538/701/726 537/702/726
f 540/664/727 541/663/727 542/672/727 539/671/727
f 544/703/728 543/704/728 546/705/728 545/706/728
f 530/696/729 528/695/729 546/705/729 543/704/729
f 529/690/730 530/689/730 543/704/730 544/703/730
f 524/686/731 526/685/731 542/672/731 541/663/731
f 525/680/732 523/679/732 540/664/732 539/671/732
f 528/700/733 527/699/733 545/706/733 546/705/733
f 527/692/717 529/691/717 544/703/717 545/706/717
o Hat
v -0.161363 1.930898 0.592729
v 0.765816 2.780103 0.641174
v -0.431610 1.715510 -0.314393
v 0.403068 2.364427 -0.182329
v 1.540050 1.174510 0.673980
v 1.554531 2.508165 0.431015
v 1.694986 0.930760 -0.213522
v 1.191783 2.092488 -0.392488
v 0.756516 3.047119 -0.020568
v 0.416999 2.423733 -0.321699
v 0.968540 2.259757 -0.604091
v 1.308058 2.883143 -0.302960
v 0.290539 2.602812 -1.031229
v 0.322402 2.354019 -0.824529
v 0.602079 2.270869 -0.967726
v 0.570215 2.519663 -1.174425
v 0.477142 0.927137 -0.730400
v 0.639081 1.519569 1.324265
vn -0.8440 0.1043 0.5262
vn -0.2349 0.7940 0.5607
vn -0.9168 -0.0246 -0.3985
vn -0.8106 0.4205 -0.4076
vn 0.6750 -0.5816 0.4540
vn 0.7820 0.5129 0.3543
vn 0.6837 -0.6360 -0.3580
vn 0.6530 -0.0343 -0.7566
vn -0.3062 0.9461 0.1058
vn -0.9384 -0.3364 0.0791
vn 0.4028 -0.7469 -0.5290
vn 0.6982 0.6276 -0.3445
vn -0.7357 0.3912 -0.5529
vn -0.8293 -0.5572 -0.0425
vn 0.1212 -0.8398 -0.5292
vn 0.1068 0.1407 -0.9843
vn -0.2776 -0.6572 -0.7007
vn -0.0830 -0.3247 0.9422
vt 0.372391 0.222449
vt 0.280620 0.149683
vt 0.457577 0.062192
vt 0.443359 0.168064
vt 0.291150 0.746505
vt 0.221856 0.852999
vt 0.143721 0.789315
vt 0.213737 0.703322
vt 0.011527 0.663133
vt 0.121881 0.579930
vt 0.139735 0.645579
vt 0.098528 0.734322
vt 0.185858 0.571001
vt 0.193988 0.629025
vt 0.213108 0.519315
vt 0.269695 0.540468
vt 0.285681 0.572045
vt 0.153273 0.499849
vt 0.230201 0.686809
vt 0.285972 0.714590
vt 0.287492 0.613425
vt 0.277626 0.653118
vt 0.011527 0.546067
vt 0.030271 0.461667
vt 0.293386 0.526474
vt 0.310599 0.550587
vt 0.299395 0.670357
vt 0.336555 0.859830
vt 0.280620 0.027961
vt 0.364492 0.009094
s 1
usemtl Hat
f 549/707/736 563/708/750 564/709/751 547/710/734
f 554/711/741 563/712/750 549/713/736 550/714/737
f 564/715/751 552/716/739 548/717/735 547/718/734
f 548/717/735 552/716/739 558/719/745 555/720/742
f 558/719/745 557/721/744 561/722/748 562/723/749
f 552/716/739 554/724/741 557/721/744 558/719/745
f 550/714/737 548/717/735 555/720/742 556/725/743
f 554/711/741 550/714/737 556/725/743 557/726/744
f 555/720/742 558/719/745 562/723/749 559/727/746
f 556/725/743 555/720/742 559/727/746 560/728/747
f 554/724/741 552/716/739 551/729/738 553/730/740
f 551/729/738 552/716/739 564/715/751
f 561/722/748 560/731/747 559/732/746 562/723/749
f 550/714/737 549/713/736 547/718/734 548/717/735
f 557/726/744 556/725/743 560/728/747 561/733/748
f 554/711/741 553/734/740 563/712/750
f 563/708/750 553/735/740 551/736/738 564/709/751
o Goggles
v 0.595487 1.380567 1.268679
v 0.857456 2.005150 1.007387
v 0.618521 1.456805 1.473644
v 0.880491 2.081388 1.212352
v 0.339208 1.478657 1.246249
v 0.680228 2.155566 1.188928
v 0.601177 2.103240 0.984957
v 0.418259 1.530983 1.450220
v 0.168112 1.540020 1.221436
v 0.580874 2.387974 1.083607
v 0.502463 2.336762 0.882846
v 0.246524 1.591232 1.422197
v -0.161176 1.738287 1.364970
v -0.295026 1.912049 1.270197
v 0.173446 2.535927 1.028796
v -0.057872 2.477480 1.033288
v -0.311600 1.857193 1.122701
v -0.184211 1.662049 1.160005
v 0.150411 2.459690 0.823830
v -0.074446 2.422624 0.885792
v 0.794882 1.289351 1.267931
v 1.079886 1.990172 1.211604
v 1.056851 1.913934 1.006639
v 0.817917 1.365589 1.472896
v 0.962226 1.215461 1.256224
v 1.319611 2.088440 1.122599
v 1.296576 2.012203 0.917634
v 0.985261 1.291698 1.461189
v 1.403262 1.106539 1.423233
v 1.615280 1.141034 1.342294
v 1.737884 1.904180 1.087059
v 1.852434 1.706465 1.105384
v 1.598706 1.086177 1.194798
v 1.380227 1.030302 1.218268
v 1.714849 1.827942 0.882094
v 1.835860 1.651609 0.957888
vn -0.3607 -0.8602 0.3604
vn -0.3740 -0.8547 0.3600
vn -0.3741 -0.8547 0.3599
vn -0.3607 -0.8602 0.3605
vn -0.0262 -0.3779 -0.9255
vn -0.0195 -0.3807 -0.9245
vn -0.1051 -0.3459 -0.9323
vn -0.1060 -0.3456 -0.9324
vn 0.0124 -0.3937 -0.9192
vn 0.0148 -0.3947 -0.9187
vn -0.3608 -0.8602 0.3604
vn 0.3740 0.8547 -0.3600
vn 0.3608 0.8602 -0.3605
vn 0.3741 0.8547 -0.3599
vn 0.0923 0.3511 0.9318
vn 0.0912 0.3515 0.9317
vn -0.0018 0.3883 0.9215
vn 0.0038 0.3860 0.9225
vn 0.8941 0.2022 -0.3996
vn 0.0012 0.3890 0.9212
vn -0.0052 0.3911 0.9203
vn -0.8283 -0.4882 0.2747
vn -0.0271 0.3984 0.9168
vn -0.0913 0.4183 0.9037
vn -0.2382 0.9187 -0.3149
vn -0.0654 -0.3647 -0.9288
vn -0.2025 -0.3061 -0.9302
vn -0.9268 0.3740 -0.0350
vn 0.3608 0.8602 -0.3604
vn -0.3706 -0.8562 0.3601
vn -0.3722 -0.8555 0.3600
vn -0.1825 -0.3148 -0.9314
vn -0.1882 -0.3126 -0.9310
vn -0.2135 -0.3030 -0.9288
vn -0.2141 -0.3028 -0.9287
vn -0.3526 -0.8634 0.3608
vn -0.3530 -0.8633 0.3608
vn 0.3871 0.8491 -0.3593
vn 0.1825 0.3148 0.9314
vn 0.1882 0.3126 0.9310
vn -0.4487 0.8529 -0.2668
vn 0.2135 0.3030 0.9288
vn 0.2141 0.3028 0.9287
vn 0.2667 -0.9127 0.3095
vn 0.2489 0.2862 0.9253
vn 0.3046 0.2577 0.9169
vn 0.2492 0.2861 0.9252
vn 0.8443 0.4644 -0.2676
vn -0.1342 -0.3371 -0.9319
vn 0.0040 -0.3890 -0.9212
vn -0.1349 -0.3368 -0.9319
vn -0.3501 -0.8644 0.3609
vn 0.9268 -0.3740 0.0350
vn 0.3501 0.8644 -0.3609
vt 0.700581 0.438540
vt 0.699611 0.412493
vt 0.719397 0.412366
vt 0.719664 0.432515
vt 0.632499 0.440501
vt 0.632707 0.413031
vt 0.701424 0.455463
vt 0.617541 0.460042
vt 0.720027 0.450148
vt 0.613580 0.430589
vt 0.612030 0.414122
vt 0.784895 0.412290
vt 0.784585 0.430473
vt 0.600830 0.450844
vt 0.803962 0.445247
vt 0.702681 0.489595
vt 0.722215 0.492978
vt 0.696950 0.520920
vt 0.690963 0.506793
vt 0.809116 0.483249
vt 0.799580 0.502203
vt 0.738570 0.509550
vt 0.600847 0.498156
vt 0.619741 0.493579
vt 0.632165 0.509719
vt 0.626382 0.523274
vt 0.700025 0.391731
vt 0.719572 0.391847
vt 0.632106 0.391118
vt 0.700426 0.374741
vt 0.617298 0.371205
vt 0.720053 0.374385
vt 0.611513 0.397273
vt 0.784115 0.393740
vt 0.598753 0.376312
vt 0.803461 0.378926
vt 0.701862 0.332922
vt 0.689838 0.316907
vt 0.695352 0.302647
vt 0.721789 0.329453
vt 0.738068 0.313937
vt 0.799378 0.321216
vt 0.809116 0.339124
vt 0.599380 0.326991
vt 0.624482 0.301682
vt 0.630483 0.315146
vt 0.618564 0.330520
s 1
usemtl Goggles
f 569/737/752 565/738/753 567/739/754 572/740/755
f 569/737/756 571/741/757 566/742/758 565/738/759
f 573/743/760 575/744/761 571/741/757 569/737/756
f 573/743/762 569/737/752 572/740/755 576/745/752
f 566/742/763 571/741/764 570/746/764 568/747/765
f 567/739/766 568/748/767 570/749/768 572/740/769
f 571/741/770 575/744/770 574/750/770 570/746/770
f 572/740/769 570/749/768 574/751/771 576/745/772
f 582/752/773 577/753/773 578/754/773 581/755/773
f 577/753/774 579/756/774 580/757/775 578/758/775
f 579/759/776 583/760/776 584/761/776 580/762/776
f 583/760/777 582/752/777 581/755/778 584/761/778
f 582/752/762 573/743/762 576/745/752 577/753/762
f 578/754/779 580/762/779 584/761/779 581/755/779
f 576/745/772 574/751/771 579/756/774 577/753/774
f 575/744/780 583/760/780 579/759/780 574/750/780
f 582/752/777 583/760/777 575/744/761 573/743/760
f 585/763/781 588/764/782 567/739/754 565/738/753
f 585/763/783 565/738/759 566/742/758 587/765/784
f 589/766/785 585/763/783 587/765/784 591/767/786
f 589/766/787 592/768/788 588/764/782 585/763/781
f 566/742/763 568/747/765 586/769/789 587/765/789
f 567/739/766 588/764/790 586/770/791 568/748/767
f 587/765/792 586/769/792 590/771/792 591/767/792
f 588/764/790 592/768/793 590/772/794 586/770/791
f 598/773/795 597/774/795 594/775/795 593/776/795
f 593/776/796 594/777/797 596/778/797 595/779/798
f 595/780/799 596/781/799 600/782/799 599/783/799
f 599/783/800 600/782/801 597/774/801 598/773/802
f 598/773/803 593/776/803 592/768/788 589/766/787
f 594/775/804 597/774/804 600/782/804 596/781/804
f 592/768/793 593/776/796 595/779/798 590/772/794
f 591/767/805 590/771/805 595/780/805 599/783/805
f 598/773/802 589/766/785 591/767/786 599/783/800
o Belt
v -0.484224 -1.660803 -0.210912
v -0.458848 -1.758384 0.048429
v 0.347276 -0.253227 0.262419
v 0.545345 -0.459943 0.271251
v -0.360846 -0.913999 0.079818
v -0.146477 -1.108754 0.139937
v 0.513942 -0.219943 -0.316860
v 0.711709 -0.436725 -0.307709
v -0.489491 -1.041352 -1.405396
v -0.232903 -1.178920 -1.405413
v -0.790505 -2.099949 -1.302647
v -0.498910 -2.120062 -1.301396
v -0.783935 -2.092863 -0.649336
v -0.495771 -2.109214 -0.649089
v -0.487240 -1.286641 -0.094959
v -0.342323 -1.407650 0.077322
vn -0.8147 -0.2749 0.5106
vn -0.8605 -0.1687 0.4807
vn 0.3209 0.4138 0.8520
vn 0.3770 0.4574 0.8054
vn -0.3721 -0.0279 0.9278
vn -0.3837 -0.0278 0.9231
vn 0.6591 0.6947 -0.2880
vn 0.6534 0.6917 -0.3076
vn 0.2073 0.2201 -0.9532
vn 0.2207 0.2385 -0.9457
vn -0.0614 -0.7822 -0.6200
vn -0.0583 -0.7061 -0.7057
vn -0.3488 -0.8969 0.2720
vn -0.4039 -0.8561 0.3226
vn -0.7542 0.0169 0.6564
vn -0.7797 0.0232 0.6258
vt 0.858507 0.329654
vt 0.885187 0.331600
vt 0.895223 0.419411
vt 0.868550 0.420077
vt 0.861500 0.278686
vt 0.887271 0.284570
vt 0.908238 0.468643
vt 0.881692 0.472023
vt 0.898692 0.613464
vt 0.872136 0.615128
vt 0.884445 0.712817
vt 0.858507 0.719142
vt 0.866149 0.776844
vt 0.892230 0.774370
vt 0.864493 0.227718
vt 0.864167 0.168922
vt 0.889131 0.177942
vt 0.889355 0.237539
s 1
usemtl BackpackStripe
f 605/784/810 606/785/811 604/786/809 603/787/808
f 615/788/820 616/789/821 606/785/811 605/784/810
f 603/787/808 604/786/809 608/790/813 607/791/812
f 607/791/812 608/790/813 610/792/815 609/793/814
f 609/793/814 610/792/815 612/794/817 611/795/816
f 613/796/818 611/795/816 612/794/817 614/797/819
f 601/798/806 613/799/818 614/800/819 602/801/807
f 601/798/806 602/801/807 616/789/821 615/788/820
